<?xml version="1.0" encoding="UTF-8" standalone="no"?>
<!DOCTYPE svg PUBLIC "-//W3C//DTD SVG 1.1//EN"
 "http://www.w3.org/Graphics/SVG/1.1/DTD/svg11.dtd">
<!-- Generated by graphviz version 2.44.1 (20200629.0846)
 -->
<!-- Title: dependencies Pages: 1 -->
<svg width="2319pt" height="284pt"
 viewBox="0.00 0.00 2319.00 284.00" xmlns="http://www.w3.org/2000/svg" xmlns:xlink="http://www.w3.org/1999/xlink">
<g id="graph0" class="graph" transform="scale(1 1) rotate(0) translate(4 280)">
<title>dependencies</title>
<polygon fill="white" stroke="transparent" points="-4,4 -4,-280 2315,-280 2315,4 -4,4"/>
<text text-anchor="start" x="1134.51" y="-42.4" font-family="sans-serif" font-weight="bold" font-size="14.00">Legend</text>
<polygon fill="#ffffb3" stroke="transparent" points="921.5,-10 921.5,-30 941.5,-30 941.5,-10 921.5,-10"/>
<text text-anchor="start" x="945.13" y="-15.4" font-family="sans-serif" font-size="14.00"> &#160;Declarations</text>
<polygon fill="#8dd3c7" stroke="transparent" points="1034.5,-10 1034.5,-30 1054.5,-30 1054.5,-10 1034.5,-10"/>
<text text-anchor="start" x="1058.23" y="-15.4" font-family="sans-serif" font-size="14.00"> &#160;Module</text>
<polygon fill="#80b1d3" stroke="transparent" points="1120.5,-10 1120.5,-30 1140.5,-30 1140.5,-10 1120.5,-10"/>
<text text-anchor="start" x="1144.28" y="-15.4" font-family="sans-serif" font-size="14.00"> &#160;Bootstrap</text>
<polygon fill="#fdb462" stroke="transparent" points="1217.5,-10 1217.5,-30 1237.5,-30 1237.5,-10 1217.5,-10"/>
<text text-anchor="start" x="1241.17" y="-15.4" font-family="sans-serif" font-size="14.00"> &#160;Providers</text>
<polygon fill="#fb8072" stroke="transparent" points="1313.5,-10 1313.5,-30 1333.5,-30 1333.5,-10 1313.5,-10"/>
<text text-anchor="start" x="1337.23" y="-15.4" font-family="sans-serif" font-size="14.00"> &#160;Exports</text>
<g id="clust1" class="cluster">
<title>cluster_AuthModule</title>
<polygon fill="none" stroke="black" stroke-dasharray="1,5" points="8,-70 8,-268 2303,-268 2303,-70 8,-70"/>
</g>
<g id="clust9" class="cluster">
<title>cluster_AuthModule_imports</title>
<polygon fill="none" stroke="black" points="975,-78 975,-130 2295,-130 2295,-78 975,-78"/>
</g>
<g id="clust10" class="cluster">
<title>cluster_AuthModule_exports</title>
<polygon fill="none" stroke="black" points="679,-208 679,-260 1653,-260 1653,-208 679,-208"/>
</g>
<g id="clust2" class="cluster">
<title>cluster_AuthModule_declarations</title>
<polygon fill="none" stroke="black" points="16,-78 16,-130 967,-130 967,-78 16,-78"/>
</g>
<!-- IsLoggedInDirective -->
<g id="node1" class="node">
<title>IsLoggedInDirective</title>
<polygon fill="#ffffb3" stroke="black" points="959.12,-122 826.88,-122 826.88,-86 959.12,-86 959.12,-122"/>
<text text-anchor="middle" x="893" y="-99.8" font-family="Times,serif" font-size="14.00">IsLoggedInDirective</text>
</g>
<!-- AuthModule -->
<g id="node7" class="node">
<title>AuthModule</title>
<polygon fill="#8dd3c7" stroke="black" points="1262.55,-187 1259.55,-191 1238.55,-191 1235.55,-187 1175.45,-187 1175.45,-151 1262.55,-151 1262.55,-187"/>
<text text-anchor="middle" x="1219" y="-164.8" font-family="Times,serif" font-size="14.00">AuthModule</text>
</g>
<!-- IsLoggedInDirective&#45;&gt;AuthModule -->
<g id="edge1" class="edge">
<title>IsLoggedInDirective&#45;&gt;AuthModule</title>
<path fill="none" stroke="black" d="M915.34,-122.01C915.34,-138.05 915.34,-159 915.34,-159 915.34,-159 1165.17,-159 1165.17,-159"/>
<polygon fill="black" stroke="black" points="1165.17,-162.5 1175.17,-159 1165.17,-155.5 1165.17,-162.5"/>
</g>
<!-- NotRolesDirective -->
<g id="node2" class="node">
<title>NotRolesDirective</title>
<polygon fill="#ffffb3" stroke="black" points="808.47,-122 687.53,-122 687.53,-86 808.47,-86 808.47,-122"/>
<text text-anchor="middle" x="748" y="-99.8" font-family="Times,serif" font-size="14.00">NotRolesDirective</text>
</g>
<!-- NotRolesDirective&#45;&gt;AuthModule -->
<g id="edge2" class="edge">
<title>NotRolesDirective&#45;&gt;AuthModule</title>
<path fill="none" stroke="black" d="M748,-122.03C748,-139.06 748,-162 748,-162 748,-162 1165.11,-162 1165.11,-162"/>
<polygon fill="black" stroke="black" points="1165.11,-165.5 1175.11,-162 1165.11,-158.5 1165.11,-165.5"/>
</g>
<!-- RolesDirective -->
<g id="node3" class="node">
<title>RolesDirective</title>
<polygon fill="#ffffb3" stroke="black" points="669.97,-122 570.03,-122 570.03,-86 669.97,-86 669.97,-122"/>
<text text-anchor="middle" x="620" y="-99.8" font-family="Times,serif" font-size="14.00">RolesDirective</text>
</g>
<!-- RolesDirective&#45;&gt;AuthModule -->
<g id="edge3" class="edge">
<title>RolesDirective&#45;&gt;AuthModule</title>
<path fill="none" stroke="black" d="M620,-122.27C620,-140.56 620,-166 620,-166 620,-166 1165.44,-166 1165.44,-166"/>
<polygon fill="black" stroke="black" points="1165.44,-169.5 1175.44,-166 1165.44,-162.5 1165.44,-169.5"/>
</g>
<!-- ZenLoginFormComponent -->
<g id="node4" class="node">
<title>ZenLoginFormComponent</title>
<polygon fill="#ffffb3" stroke="black" points="552.38,-122 385.62,-122 385.62,-86 552.38,-86 552.38,-122"/>
<text text-anchor="middle" x="469" y="-99.8" font-family="Times,serif" font-size="14.00">ZenLoginFormComponent</text>
</g>
<!-- ZenLoginFormComponent&#45;&gt;AuthModule -->
<g id="edge4" class="edge">
<title>ZenLoginFormComponent&#45;&gt;AuthModule</title>
<path fill="none" stroke="black" d="M469,-122.11C469,-141.34 469,-169 469,-169 469,-169 1165.44,-169 1165.44,-169"/>
<polygon fill="black" stroke="black" points="1165.44,-172.5 1175.44,-169 1165.44,-165.5 1165.44,-172.5"/>
</g>
<!-- ZenLoginPageComponent -->
<g id="node5" class="node">
<title>ZenLoginPageComponent</title>
<polygon fill="#ffffb3" stroke="black" points="367.75,-122 204.25,-122 204.25,-86 367.75,-86 367.75,-122"/>
<text text-anchor="middle" x="286" y="-99.8" font-family="Times,serif" font-size="14.00">ZenLoginPageComponent</text>
</g>
<!-- ZenLoginPageComponent&#45;&gt;AuthModule -->
<g id="edge5" class="edge">
<title>ZenLoginPageComponent&#45;&gt;AuthModule</title>
<path fill="none" stroke="black" d="M286,-122.13C286,-142.57 286,-173 286,-173 286,-173 1165.25,-173 1165.25,-173"/>
<polygon fill="black" stroke="black" points="1165.25,-176.5 1175.25,-173 1165.25,-169.5 1165.25,-176.5"/>
</g>
<!-- ZenLoginLinkComponent -->
<g id="node6" class="node">
<title>ZenLoginLinkComponent</title>
<polygon fill="#ffffb3" stroke="black" points="186.49,-122 23.51,-122 23.51,-86 186.49,-86 186.49,-122"/>
<text text-anchor="middle" x="105" y="-99.8" font-family="Times,serif" font-size="14.00">ZenLoginLinkComponent</text>
</g>
<!-- ZenLoginLinkComponent&#45;&gt;AuthModule -->
<g id="edge6" class="edge">
<title>ZenLoginLinkComponent&#45;&gt;AuthModule</title>
<path fill="none" stroke="black" d="M105,-122.04C105,-143.66 105,-177 105,-177 105,-177 1165.33,-177 1165.33,-177"/>
<polygon fill="black" stroke="black" points="1165.33,-180.5 1175.33,-177 1165.33,-173.5 1165.33,-180.5"/>
</g>
<!-- IsLoggedInDirective  -->
<g id="node17" class="node">
<title>IsLoggedInDirective </title>
<polygon fill="#fb8072" stroke="black" points="1645.12,-252 1508.88,-252 1508.88,-216 1645.12,-216 1645.12,-252"/>
<text text-anchor="middle" x="1577" y="-229.8" font-family="Times,serif" font-size="14.00">IsLoggedInDirective </text>
</g>
<!-- AuthModule&#45;&gt;IsLoggedInDirective  -->
<g id="edge16" class="edge">
<title>AuthModule&#45;&gt;IsLoggedInDirective </title>
<path fill="none" stroke="black" stroke-dasharray="5,2" d="M1262.63,-180C1351.47,-180 1545.03,-180 1545.03,-180 1545.03,-180 1545.03,-205.72 1545.03,-205.72"/>
<polygon fill="black" stroke="black" points="1541.53,-205.72 1545.03,-215.72 1548.53,-205.72 1541.53,-205.72"/>
</g>
<!-- NotRolesDirective  -->
<g id="node18" class="node">
<title>NotRolesDirective </title>
<polygon fill="#fb8072" stroke="black" points="1491.47,-252 1366.53,-252 1366.53,-216 1491.47,-216 1491.47,-252"/>
<text text-anchor="middle" x="1429" y="-229.8" font-family="Times,serif" font-size="14.00">NotRolesDirective </text>
</g>
<!-- AuthModule&#45;&gt;NotRolesDirective  -->
<g id="edge17" class="edge">
<title>AuthModule&#45;&gt;NotRolesDirective </title>
<path fill="none" stroke="black" stroke-dasharray="5,2" d="M1262.98,-184C1317.87,-184 1404.6,-184 1404.6,-184 1404.6,-184 1404.6,-205.95 1404.6,-205.95"/>
<polygon fill="black" stroke="black" points="1401.1,-205.95 1404.6,-215.95 1408.1,-205.95 1401.1,-205.95"/>
</g>
<!-- RolesDirective  -->
<g id="node19" class="node">
<title>RolesDirective </title>
<polygon fill="#fb8072" stroke="black" points="1348.97,-252 1245.03,-252 1245.03,-216 1348.97,-216 1348.97,-252"/>
<text text-anchor="middle" x="1297" y="-229.8" font-family="Times,serif" font-size="14.00">RolesDirective </text>
</g>
<!-- AuthModule&#45;&gt;RolesDirective  -->
<g id="edge18" class="edge">
<title>AuthModule&#45;&gt;RolesDirective </title>
<path fill="none" stroke="black" stroke-dasharray="5,2" d="M1254.02,-187.11C1254.02,-187.11 1254.02,-205.99 1254.02,-205.99"/>
<polygon fill="black" stroke="black" points="1250.52,-205.99 1254.02,-215.99 1257.52,-205.99 1250.52,-205.99"/>
</g>
<!-- ZenLoginFormComponent  -->
<g id="node20" class="node">
<title>ZenLoginFormComponent </title>
<polygon fill="#fb8072" stroke="black" points="1227.38,-252 1056.62,-252 1056.62,-216 1227.38,-216 1227.38,-252"/>
<text text-anchor="middle" x="1142" y="-229.8" font-family="Times,serif" font-size="14.00">ZenLoginFormComponent </text>
</g>
<!-- AuthModule&#45;&gt;ZenLoginFormComponent  -->
<g id="edge19" class="edge">
<title>AuthModule&#45;&gt;ZenLoginFormComponent </title>
<path fill="none" stroke="black" stroke-dasharray="5,2" d="M1201.21,-187.11C1201.21,-187.11 1201.21,-205.99 1201.21,-205.99"/>
<polygon fill="black" stroke="black" points="1197.71,-205.99 1201.21,-215.99 1204.71,-205.99 1197.71,-205.99"/>
</g>
<!-- ZenLoginPageComponent  -->
<g id="node21" class="node">
<title>ZenLoginPageComponent </title>
<polygon fill="#fb8072" stroke="black" points="1038.75,-252 871.25,-252 871.25,-216 1038.75,-216 1038.75,-252"/>
<text text-anchor="middle" x="955" y="-229.8" font-family="Times,serif" font-size="14.00">ZenLoginPageComponent </text>
</g>
<!-- AuthModule&#45;&gt;ZenLoginPageComponent  -->
<g id="edge20" class="edge">
<title>AuthModule&#45;&gt;ZenLoginPageComponent </title>
<path fill="none" stroke="black" stroke-dasharray="5,2" d="M1175.35,-184C1114.3,-184 1010.79,-184 1010.79,-184 1010.79,-184 1010.79,-205.95 1010.79,-205.95"/>
<polygon fill="black" stroke="black" points="1007.29,-205.95 1010.79,-215.95 1014.29,-205.95 1007.29,-205.95"/>
</g>
<!-- ZenLoginLinkComponent  -->
<g id="node22" class="node">
<title>ZenLoginLinkComponent </title>
<polygon fill="#fb8072" stroke="black" points="853.49,-252 686.51,-252 686.51,-216 853.49,-216 853.49,-252"/>
<text text-anchor="middle" x="770" y="-229.8" font-family="Times,serif" font-size="14.00">ZenLoginLinkComponent </text>
</g>
<!-- AuthModule&#45;&gt;ZenLoginLinkComponent  -->
<g id="edge21" class="edge">
<title>AuthModule&#45;&gt;ZenLoginLinkComponent </title>
<path fill="none" stroke="black" stroke-dasharray="5,2" d="M1175.15,-180C1075.38,-180 839.97,-180 839.97,-180 839.97,-180 839.97,-205.72 839.97,-205.72"/>
<polygon fill="black" stroke="black" points="836.47,-205.72 839.97,-215.72 843.47,-205.72 836.47,-205.72"/>
</g>
<!-- CommonModule -->
<g id="node8" class="node">
<title>CommonModule</title>
<polygon fill="#8dd3c7" stroke="black" points="2286.67,-122 2283.67,-126 2262.67,-126 2259.67,-122 2175.33,-122 2175.33,-86 2286.67,-86 2286.67,-122"/>
<text text-anchor="middle" x="2231" y="-99.8" font-family="Times,serif" font-size="14.00">CommonModule</text>
</g>
<!-- CommonModule&#45;&gt;AuthModule -->
<g id="edge7" class="edge">
<title>CommonModule&#45;&gt;AuthModule</title>
<path fill="none" stroke="black" d="M2231,-122.04C2231,-143.66 2231,-177 2231,-177 2231,-177 1272.81,-177 1272.81,-177"/>
<polygon fill="black" stroke="black" points="1272.81,-173.5 1262.81,-177 1272.81,-180.5 1272.81,-173.5"/>
</g>
<!-- ReactiveFormsModule -->
<g id="node9" class="node">
<title>ReactiveFormsModule</title>
<polygon fill="#8dd3c7" stroke="black" points="2157.3,-122 2154.3,-126 2133.3,-126 2130.3,-122 2012.7,-122 2012.7,-86 2157.3,-86 2157.3,-122"/>
<text text-anchor="middle" x="2085" y="-99.8" font-family="Times,serif" font-size="14.00">ReactiveFormsModule</text>
</g>
<!-- ReactiveFormsModule&#45;&gt;AuthModule -->
<g id="edge8" class="edge">
<title>ReactiveFormsModule&#45;&gt;AuthModule</title>
<path fill="none" stroke="black" d="M2085,-122.13C2085,-142.57 2085,-173 2085,-173 2085,-173 1272.84,-173 1272.84,-173"/>
<polygon fill="black" stroke="black" points="1272.84,-169.5 1262.84,-173 1272.84,-176.5 1272.84,-169.5"/>
</g>
<!-- MatInputModule -->
<g id="node10" class="node">
<title>MatInputModule</title>
<polygon fill="#8dd3c7" stroke="black" points="1994.65,-122 1991.65,-126 1970.65,-126 1967.65,-122 1883.35,-122 1883.35,-86 1994.65,-86 1994.65,-122"/>
<text text-anchor="middle" x="1939" y="-99.8" font-family="Times,serif" font-size="14.00">MatInputModule</text>
</g>
<!-- MatInputModule&#45;&gt;AuthModule -->
<g id="edge9" class="edge">
<title>MatInputModule&#45;&gt;AuthModule</title>
<path fill="none" stroke="black" d="M1939,-122.11C1939,-141.34 1939,-169 1939,-169 1939,-169 1272.69,-169 1272.69,-169"/>
<polygon fill="black" stroke="black" points="1272.69,-165.5 1262.69,-169 1272.69,-172.5 1272.69,-165.5"/>
</g>
<!-- MatFormFieldModule -->
<g id="node11" class="node">
<title>MatFormFieldModule</title>
<polygon fill="#8dd3c7" stroke="black" points="1865.71,-122 1862.71,-126 1841.71,-126 1838.71,-122 1724.29,-122 1724.29,-86 1865.71,-86 1865.71,-122"/>
<text text-anchor="middle" x="1795" y="-99.8" font-family="Times,serif" font-size="14.00">MatFormFieldModule</text>
</g>
<!-- MatFormFieldModule&#45;&gt;AuthModule -->
<g id="edge10" class="edge">
<title>MatFormFieldModule&#45;&gt;AuthModule</title>
<path fill="none" stroke="black" d="M1795,-122.27C1795,-140.56 1795,-166 1795,-166 1795,-166 1272.77,-166 1272.77,-166"/>
<polygon fill="black" stroke="black" points="1272.77,-162.5 1262.77,-166 1272.77,-169.5 1272.77,-162.5"/>
</g>
<!-- MatIconModule -->
<g id="node12" class="node">
<title>MatIconModule</title>
<polygon fill="#8dd3c7" stroke="black" points="1706.47,-122 1703.47,-126 1682.47,-126 1679.47,-122 1599.53,-122 1599.53,-86 1706.47,-86 1706.47,-122"/>
<text text-anchor="middle" x="1653" y="-99.8" font-family="Times,serif" font-size="14.00">MatIconModule</text>
</g>
<!-- MatIconModule&#45;&gt;AuthModule -->
<g id="edge11" class="edge">
<title>MatIconModule&#45;&gt;AuthModule</title>
<path fill="none" stroke="black" d="M1622.29,-122.03C1622.29,-139.06 1622.29,-162 1622.29,-162 1622.29,-162 1272.93,-162 1272.93,-162"/>
<polygon fill="black" stroke="black" points="1272.93,-158.5 1262.93,-162 1272.93,-165.5 1272.93,-158.5"/>
</g>
<!-- MatButtonModule -->
<g id="node13" class="node">
<title>MatButtonModule</title>
<polygon fill="#8dd3c7" stroke="black" points="1581.22,-122 1578.22,-126 1557.22,-126 1554.22,-122 1460.78,-122 1460.78,-86 1581.22,-86 1581.22,-122"/>
<text text-anchor="middle" x="1521" y="-99.8" font-family="Times,serif" font-size="14.00">MatButtonModule</text>
</g>
<!-- MatButtonModule&#45;&gt;AuthModule -->
<g id="edge12" class="edge">
<title>MatButtonModule&#45;&gt;AuthModule</title>
<path fill="none" stroke="black" d="M1476.06,-122.01C1476.06,-138.05 1476.06,-159 1476.06,-159 1476.06,-159 1272.61,-159 1272.61,-159"/>
<polygon fill="black" stroke="black" points="1272.61,-155.5 1262.61,-159 1272.61,-162.5 1272.61,-155.5"/>
</g>
<!-- MatCheckboxModule -->
<g id="node14" class="node">
<title>MatCheckboxModule</title>
<polygon fill="#8dd3c7" stroke="black" points="1442.37,-122 1439.37,-126 1418.37,-126 1415.37,-122 1303.63,-122 1303.63,-86 1442.37,-86 1442.37,-122"/>
<text text-anchor="middle" x="1373" y="-99.8" font-family="Times,serif" font-size="14.00">MatCheckboxModule</text>
</g>
<!-- MatCheckboxModule&#45;&gt;AuthModule -->
<g id="edge13" class="edge">
<title>MatCheckboxModule&#45;&gt;AuthModule</title>
<path fill="none" stroke="black" d="M1326.15,-122.12C1326.15,-136.78 1326.15,-155 1326.15,-155 1326.15,-155 1272.58,-155 1272.58,-155"/>
<polygon fill="black" stroke="black" points="1272.58,-151.5 1262.58,-155 1272.58,-158.5 1272.58,-151.5"/>
</g>
<!-- AuthRoutingModule -->
<g id="node15" class="node">
<title>AuthRoutingModule</title>
<polygon fill="#8dd3c7" stroke="black" points="1285.17,-122 1282.17,-126 1261.17,-126 1258.17,-122 1152.83,-122 1152.83,-86 1285.17,-86 1285.17,-122"/>
<text text-anchor="middle" x="1219" y="-99.8" font-family="Times,serif" font-size="14.00">AuthRoutingModule</text>
</g>
<!-- AuthRoutingModule&#45;&gt;AuthModule -->
<g id="edge14" class="edge">
<title>AuthRoutingModule&#45;&gt;AuthModule</title>
<path fill="none" stroke="black" d="M1219,-122.11C1219,-122.11 1219,-140.99 1219,-140.99"/>
<polygon fill="black" stroke="black" points="1215.5,-140.99 1219,-150.99 1222.5,-140.99 1215.5,-140.99"/>
</g>
<!-- ZenComponentsModule -->
<g id="node16" class="node">
<title>ZenComponentsModule</title>
<polygon fill="#8dd3c7" stroke="black" points="1135.09,-122 1132.09,-126 1111.09,-126 1108.09,-122 982.91,-122 982.91,-86 1135.09,-86 1135.09,-122"/>
<text text-anchor="middle" x="1059" y="-99.8" font-family="Times,serif" font-size="14.00">ZenComponentsModule</text>
</g>
<!-- ZenComponentsModule&#45;&gt;AuthModule -->
<g id="edge15" class="edge">
<title>ZenComponentsModule&#45;&gt;AuthModule</title>
<path fill="none" stroke="black" d="M1095.93,-122.12C1095.93,-136.78 1095.93,-155 1095.93,-155 1095.93,-155 1165.26,-155 1165.26,-155"/>
<polygon fill="black" stroke="black" points="1165.26,-158.5 1175.26,-155 1165.26,-151.5 1165.26,-158.5"/>
</g>
</g>
</svg>
