<?xml version="1.0" encoding="UTF-8" standalone="no"?>
<!DOCTYPE svg PUBLIC "-//W3C//DTD SVG 1.1//EN"
 "http://www.w3.org/Graphics/SVG/1.1/DTD/svg11.dtd">
<!-- Generated by graphviz version 2.40.1 (20161225.0304)
 -->
<!-- Title: dependencies Pages: 1 -->
<svg width="642pt" height="284pt"
 viewBox="0.00 0.00 642.00 284.00" xmlns="http://www.w3.org/2000/svg" xmlns:xlink="http://www.w3.org/1999/xlink">
<g id="graph0" class="graph" transform="scale(1 1) rotate(0) translate(4 280)">
<title>dependencies</title>
<polygon fill="#ffffff" stroke="transparent" points="-4,4 -4,-280 638,-280 638,4 -4,4"/>
<text text-anchor="start" x="296.0091" y="-42.4" font-family="sans-serif" font-weight="bold" font-size="14.00" fill="#000000">Legend</text>
<polygon fill="#ffffb3" stroke="transparent" points="83,-10 83,-30 103,-30 103,-10 83,-10"/>
<text text-anchor="start" x="106.629" y="-15.4" font-family="sans-serif" font-size="14.00" fill="#000000"> &#160;Declarations</text>
<polygon fill="#8dd3c7" stroke="transparent" points="196,-10 196,-30 216,-30 216,-10 196,-10"/>
<text text-anchor="start" x="219.7251" y="-15.4" font-family="sans-serif" font-size="14.00" fill="#000000"> &#160;Module</text>
<polygon fill="#80b1d3" stroke="transparent" points="282,-10 282,-30 302,-30 302,-10 282,-10"/>
<text text-anchor="start" x="305.7812" y="-15.4" font-family="sans-serif" font-size="14.00" fill="#000000"> &#160;Bootstrap</text>
<polygon fill="#fdb462" stroke="transparent" points="379,-10 379,-30 399,-30 399,-10 379,-10"/>
<text text-anchor="start" x="402.6732" y="-15.4" font-family="sans-serif" font-size="14.00" fill="#000000"> &#160;Providers</text>
<polygon fill="#fb8072" stroke="transparent" points="475,-10 475,-30 495,-30 495,-10 475,-10"/>
<text text-anchor="start" x="498.7258" y="-15.4" font-family="sans-serif" font-size="14.00" fill="#000000"> &#160;Exports</text>
<g id="clust1" class="cluster">
<title>cluster_AuthModule</title>
<polygon fill="none" stroke="#000000" stroke-dasharray="1,5" points="8,-70 8,-268 626,-268 626,-70 8,-70"/>
</g>
<g id="clust3" class="cluster">
<title>cluster_AuthModule_imports</title>
<polygon fill="none" stroke="#000000" points="407,-78 407,-130 618,-130 618,-78 407,-78"/>
</g>
<g id="clust4" class="cluster">
<title>cluster_AuthModule_exports</title>
<polygon fill="none" stroke="#000000" points="186,-208 186,-260 485,-260 485,-208 186,-208"/>
</g>
<g id="clust6" class="cluster">
<title>cluster_AuthModule_providers</title>
<polygon fill="none" stroke="#000000" points="16,-78 16,-130 399,-130 399,-78 16,-78"/>
</g>
<!-- JwtModule -->
<g id="node1" class="node">
<title>JwtModule</title>
<polygon fill="#8dd3c7" stroke="#000000" points="610.4916,-122 607.4916,-126 586.4916,-126 583.4916,-122 531.5084,-122 531.5084,-86 610.4916,-86 610.4916,-122"/>
<text text-anchor="middle" x="571" y="-99.8" font-family="Times,serif" font-size="14.00" fill="#000000">JwtModule</text>
</g>
<!-- AuthModule -->
<g id="node3" class="node">
<title>AuthModule</title>
<polygon fill="#8dd3c7" stroke="#000000" points="375.5482,-187 372.5482,-191 351.5482,-191 348.5482,-187 288.4518,-187 288.4518,-151 375.5482,-151 375.5482,-187"/>
<text text-anchor="middle" x="332" y="-164.8" font-family="Times,serif" font-size="14.00" fill="#000000">AuthModule</text>
</g>
<!-- JwtModule&#45;&gt;AuthModule -->
<g id="edge1" class="edge">
<title>JwtModule&#45;&gt;AuthModule</title>
<path fill="none" stroke="#000000" d="M571,-122.1061C571,-141.3391 571,-169 571,-169 571,-169 385.5584,-169 385.5584,-169"/>
<polygon fill="#000000" stroke="#000000" points="385.5584,-165.5001 375.5584,-169 385.5583,-172.5001 385.5584,-165.5001"/>
</g>
<!-- PrismaModule -->
<g id="node2" class="node">
<title>PrismaModule</title>
<polygon fill="#8dd3c7" stroke="#000000" points="513.4344,-122 510.4344,-126 489.4344,-126 486.4344,-122 414.5656,-122 414.5656,-86 513.4344,-86 513.4344,-122"/>
<text text-anchor="middle" x="464" y="-99.8" font-family="Times,serif" font-size="14.00" fill="#000000">PrismaModule</text>
</g>
<!-- PrismaModule&#45;&gt;AuthModule -->
<g id="edge2" class="edge">
<title>PrismaModule&#45;&gt;AuthModule</title>
<path fill="none" stroke="#000000" d="M445.7604,-122.027C445.7604,-138.3976 445.7604,-160 445.7604,-160 445.7604,-160 385.6574,-160 385.6574,-160"/>
<polygon fill="#000000" stroke="#000000" points="385.6574,-156.5001 375.6574,-160 385.6573,-163.5001 385.6574,-156.5001"/>
</g>
<!-- AuthService  -->
<g id="node4" class="node">
<title>AuthService </title>
<polygon fill="#fb8072" stroke="#000000" points="476.9761,-252 387.0239,-252 387.0239,-216 476.9761,-216 476.9761,-252"/>
<text text-anchor="middle" x="432" y="-229.8" font-family="Times,serif" font-size="14.00" fill="#000000">AuthService </text>
</g>
<!-- AuthModule&#45;&gt;AuthService  -->
<g id="edge3" class="edge">
<title>AuthModule&#45;&gt;AuthService </title>
<path fill="none" stroke="#000000" stroke-dasharray="5,2" d="M375.7795,-178C390.3993,-178 403.0436,-178 403.0436,-178 403.0436,-178 403.0436,-205.973 403.0436,-205.973"/>
<polygon fill="#000000" stroke="#000000" points="399.5437,-205.973 403.0436,-215.973 406.5437,-205.973 399.5437,-205.973"/>
</g>
<!-- GqlGuard  -->
<g id="node5" class="node">
<title>GqlGuard </title>
<polygon fill="#fb8072" stroke="#000000" points="369.9805,-252 294.0195,-252 294.0195,-216 369.9805,-216 369.9805,-252"/>
<text text-anchor="middle" x="332" y="-229.8" font-family="Times,serif" font-size="14.00" fill="#000000">GqlGuard </text>
</g>
<!-- AuthModule&#45;&gt;GqlGuard  -->
<g id="edge4" class="edge">
<title>AuthModule&#45;&gt;GqlGuard </title>
<path fill="none" stroke="#000000" stroke-dasharray="5,2" d="M332,-187.1061C332,-187.1061 332,-205.991 332,-205.991"/>
<polygon fill="#000000" stroke="#000000" points="328.5001,-205.9909 332,-215.991 335.5001,-205.991 328.5001,-205.9909"/>
</g>
<!-- JwtModule  -->
<g id="node6" class="node">
<title>JwtModule </title>
<polygon fill="#fb8072" stroke="#000000" points="276.4931,-252 193.5069,-252 193.5069,-216 276.4931,-216 276.4931,-252"/>
<text text-anchor="middle" x="235" y="-229.8" font-family="Times,serif" font-size="14.00" fill="#000000">JwtModule </text>
</g>
<!-- AuthModule&#45;&gt;JwtModule  -->
<g id="edge5" class="edge">
<title>AuthModule&#45;&gt;JwtModule </title>
<path fill="none" stroke="#000000" stroke-dasharray="5,2" d="M288.3406,-178C274.9496,-178 263.673,-178 263.673,-178 263.673,-178 263.673,-205.973 263.673,-205.973"/>
<polygon fill="#000000" stroke="#000000" points="260.1731,-205.973 263.673,-215.973 267.1731,-205.973 260.1731,-205.973"/>
</g>
<!-- AuthService -->
<g id="node7" class="node">
<title>AuthService</title>
<ellipse fill="#fdb462" stroke="#000000" cx="332" cy="-104" rx="59.1083" ry="18"/>
<text text-anchor="middle" x="332" y="-99.8" font-family="Times,serif" font-size="14.00" fill="#000000">AuthService</text>
</g>
<!-- AuthService&#45;&gt;AuthModule -->
<g id="edge6" class="edge">
<title>AuthService&#45;&gt;AuthModule</title>
<path fill="none" stroke="#000000" d="M332,-122.1061C332,-122.1061 332,-140.991 332,-140.991"/>
<polygon fill="#000000" stroke="#000000" points="328.5001,-140.9909 332,-150.991 335.5001,-140.991 328.5001,-140.9909"/>
</g>
<!-- GqlGuard -->
<g id="node8" class="node">
<title>GqlGuard</title>
<ellipse fill="#fdb462" stroke="#000000" cx="205" cy="-104" rx="49.8001" ry="18"/>
<text text-anchor="middle" x="205" y="-99.8" font-family="Times,serif" font-size="14.00" fill="#000000">GqlGuard</text>
</g>
<!-- GqlGuard&#45;&gt;AuthModule -->
<g id="edge7" class="edge">
<title>GqlGuard&#45;&gt;AuthModule</title>
<path fill="none" stroke="#000000" d="M224.202,-120.8018C224.202,-137.297 224.202,-160 224.202,-160 224.202,-160 278.1544,-160 278.1544,-160"/>
<polygon fill="#000000" stroke="#000000" points="278.1545,-163.5001 288.1544,-160 278.1544,-156.5001 278.1545,-163.5001"/>
</g>
<!-- JwtStrategy -->
<g id="node9" class="node">
<title>JwtStrategy</title>
<ellipse fill="#fdb462" stroke="#000000" cx="81" cy="-104" rx="56.7561" ry="18"/>
<text text-anchor="middle" x="81" y="-99.8" font-family="Times,serif" font-size="14.00" fill="#000000">JwtStrategy</text>
</g>
<!-- JwtStrategy&#45;&gt;AuthModule -->
<g id="edge8" class="edge">
<title>JwtStrategy&#45;&gt;AuthModule</title>
<path fill="none" stroke="#000000" d="M81,-122.1061C81,-141.3391 81,-169 81,-169 81,-169 278.2791,-169 278.2791,-169"/>
<polygon fill="#000000" stroke="#000000" points="278.2792,-172.5001 288.2791,-169 278.2791,-165.5001 278.2792,-172.5001"/>
</g>
</g>
</svg>
