<?xml version="1.0" encoding="iso-8859-1"?>
<!-- Uploaded to: SVG Repo, www.svgrepo.com, Generator: SVG Repo Mixer Tools -->
<svg fill="#000000" height="800px" width="800px" version="1.1" id="Layer_1" xmlns="http://www.w3.org/2000/svg" xmlns:xlink="http://www.w3.org/1999/xlink" 
	 viewBox="0 0 512 512" xml:space="preserve">
<g>
	<g>
		<path d="M401.808,32.656H110.192C49.44,32.656,0,83.184,0,145.248v111.536c0,62.096,49.44,112.608,110.192,112.608h184.32
			l134.016,109.952v-113.36C476.992,353.664,512,309.04,512,256.784V145.248C512,83.168,462.56,32.656,401.808,32.656z M480,256.784
			c0,40.992-29.808,75.392-69.344,80.032l-14.128,1.664v73.216l-90.576-74.304h-195.76c-43.104,0-78.192-36.16-78.192-80.608
			V145.248c0-44.432,35.072-80.592,78.192-80.592h291.616c43.104,0,78.192,36.16,78.192,80.592V256.784z"/>
	</g>
</g>
</svg>