<?xml version="1.0" encoding="UTF-8" standalone="no"?>
<!DOCTYPE svg PUBLIC "-//W3C//DTD SVG 1.1//EN"
 "http://www.w3.org/Graphics/SVG/1.1/DTD/svg11.dtd">
<!-- Generated by graphviz version 2.44.1 (20200629.0846)
 -->
<!-- Title: dependencies Pages: 1 -->
<svg width="3121pt" height="284pt"
 viewBox="0.00 0.00 3121.00 284.00" xmlns="http://www.w3.org/2000/svg" xmlns:xlink="http://www.w3.org/1999/xlink">
<g id="graph0" class="graph" transform="scale(1 1) rotate(0) translate(4 280)">
<title>dependencies</title>
<polygon fill="white" stroke="transparent" points="-4,4 -4,-280 3117,-280 3117,4 -4,4"/>
<text text-anchor="start" x="1535.51" y="-42.4" font-family="sans-serif" font-weight="bold" font-size="14.00">Legend</text>
<polygon fill="#ffffb3" stroke="transparent" points="1322.5,-10 1322.5,-30 1342.5,-30 1342.5,-10 1322.5,-10"/>
<text text-anchor="start" x="1346.13" y="-15.4" font-family="sans-serif" font-size="14.00"> &#160;Declarations</text>
<polygon fill="#8dd3c7" stroke="transparent" points="1435.5,-10 1435.5,-30 1455.5,-30 1455.5,-10 1435.5,-10"/>
<text text-anchor="start" x="1459.23" y="-15.4" font-family="sans-serif" font-size="14.00"> &#160;Module</text>
<polygon fill="#80b1d3" stroke="transparent" points="1521.5,-10 1521.5,-30 1541.5,-30 1541.5,-10 1521.5,-10"/>
<text text-anchor="start" x="1545.28" y="-15.4" font-family="sans-serif" font-size="14.00"> &#160;Bootstrap</text>
<polygon fill="#fdb462" stroke="transparent" points="1618.5,-10 1618.5,-30 1638.5,-30 1638.5,-10 1618.5,-10"/>
<text text-anchor="start" x="1642.17" y="-15.4" font-family="sans-serif" font-size="14.00"> &#160;Providers</text>
<polygon fill="#fb8072" stroke="transparent" points="1714.5,-10 1714.5,-30 1734.5,-30 1734.5,-10 1714.5,-10"/>
<text text-anchor="start" x="1738.23" y="-15.4" font-family="sans-serif" font-size="14.00"> &#160;Exports</text>
<g id="clust1" class="cluster">
<title>cluster_AppModule</title>
<polygon fill="none" stroke="black" stroke-dasharray="1,5" points="8,-70 8,-268 3105,-268 3105,-70 8,-70"/>
</g>
<g id="clust2" class="cluster">
<title>cluster_AppModule_declarations</title>
<polygon fill="none" stroke="black" points="2975,-78 2975,-130 3097,-130 3097,-78 2975,-78"/>
</g>
<g id="clust7" class="cluster">
<title>cluster_AppModule_providers</title>
<polygon fill="none" stroke="black" points="1236,-78 1236,-130 2967,-130 2967,-78 1236,-78"/>
</g>
<g id="clust6" class="cluster">
<title>cluster_AppModule_bootstrap</title>
<polygon fill="none" stroke="black" points="947,-208 947,-260 1071,-260 1071,-208 947,-208"/>
</g>
<g id="clust4" class="cluster">
<title>cluster_AppModule_imports</title>
<polygon fill="none" stroke="black" points="16,-78 16,-130 1228,-130 1228,-78 16,-78"/>
</g>
<!-- AppComponent -->
<g id="node1" class="node">
<title>AppComponent</title>
<polygon fill="#ffffb3" stroke="black" points="3088.94,-122 2983.06,-122 2983.06,-86 3088.94,-86 3088.94,-122"/>
<text text-anchor="middle" x="3036" y="-99.8" font-family="Times,serif" font-size="14.00">AppComponent</text>
</g>
<!-- AppModule -->
<g id="node2" class="node">
<title>AppModule</title>
<polygon fill="#8dd3c7" stroke="black" points="1050.66,-187 1047.66,-191 1026.66,-191 1023.66,-187 967.34,-187 967.34,-151 1050.66,-151 1050.66,-187"/>
<text text-anchor="middle" x="1009" y="-164.8" font-family="Times,serif" font-size="14.00">AppModule</text>
</g>
<!-- AppComponent&#45;&gt;AppModule -->
<g id="edge1" class="edge">
<title>AppComponent&#45;&gt;AppModule</title>
<path fill="none" stroke="black" d="M3036,-122.09C3036,-145.13 3036,-182 3036,-182 3036,-182 1060.87,-182 1060.87,-182"/>
<polygon fill="black" stroke="black" points="1060.87,-178.5 1050.87,-182 1060.87,-185.5 1060.87,-178.5"/>
</g>
<!-- AppComponent  -->
<g id="node11" class="node">
<title>AppComponent </title>
<polygon fill="#80b1d3" stroke="black" points="1063.44,-252 954.56,-252 954.56,-216 1063.44,-216 1063.44,-252"/>
<text text-anchor="middle" x="1009" y="-229.8" font-family="Times,serif" font-size="14.00">AppComponent </text>
</g>
<!-- AppModule&#45;&gt;AppComponent  -->
<g id="edge10" class="edge">
<title>AppModule&#45;&gt;AppComponent </title>
<path fill="none" stroke="black" stroke-dasharray="1,5" d="M1009,-187.11C1009,-187.11 1009,-205.99 1009,-205.99"/>
<polygon fill="black" stroke="black" points="1005.5,-205.99 1009,-215.99 1012.5,-205.99 1005.5,-205.99"/>
</g>
<!-- BrowserModule -->
<g id="node3" class="node">
<title>BrowserModule</title>
<polygon fill="#8dd3c7" stroke="black" points="1220.47,-122 1217.47,-126 1196.47,-126 1193.47,-122 1113.53,-122 1113.53,-86 1220.47,-86 1220.47,-122"/>
<text text-anchor="middle" x="1167" y="-99.8" font-family="Times,serif" font-size="14.00">BrowserModule</text>
</g>
<!-- BrowserModule&#45;&gt;AppModule -->
<g id="edge2" class="edge">
<title>BrowserModule&#45;&gt;AppModule</title>
<path fill="none" stroke="black" d="M1167,-122.24C1167,-137.57 1167,-157 1167,-157 1167,-157 1060.93,-157 1060.93,-157"/>
<polygon fill="black" stroke="black" points="1060.93,-153.5 1050.93,-157 1060.93,-160.5 1060.93,-153.5"/>
</g>
<!-- BrowserAnimationsModule -->
<g id="node4" class="node">
<title>BrowserAnimationsModule</title>
<polygon fill="#8dd3c7" stroke="black" points="1095.3,-122 1092.3,-126 1071.3,-126 1068.3,-122 922.7,-122 922.7,-86 1095.3,-86 1095.3,-122"/>
<text text-anchor="middle" x="1009" y="-99.8" font-family="Times,serif" font-size="14.00">BrowserAnimationsModule</text>
</g>
<!-- BrowserAnimationsModule&#45;&gt;AppModule -->
<g id="edge3" class="edge">
<title>BrowserAnimationsModule&#45;&gt;AppModule</title>
<path fill="none" stroke="black" d="M1009,-122.11C1009,-122.11 1009,-140.99 1009,-140.99"/>
<polygon fill="black" stroke="black" points="1005.5,-140.99 1009,-150.99 1012.5,-140.99 1005.5,-140.99"/>
</g>
<!-- HttpClientModule -->
<g id="node5" class="node">
<title>HttpClientModule</title>
<polygon fill="#8dd3c7" stroke="black" points="905.16,-122 902.16,-126 881.16,-126 878.16,-122 786.84,-122 786.84,-86 905.16,-86 905.16,-122"/>
<text text-anchor="middle" x="846" y="-99.8" font-family="Times,serif" font-size="14.00">HttpClientModule</text>
</g>
<!-- HttpClientModule&#45;&gt;AppModule -->
<g id="edge4" class="edge">
<title>HttpClientModule&#45;&gt;AppModule</title>
<path fill="none" stroke="black" d="M846,-122.24C846,-137.57 846,-157 846,-157 846,-157 957.02,-157 957.02,-157"/>
<polygon fill="black" stroke="black" points="957.02,-160.5 967.02,-157 957.02,-153.5 957.02,-160.5"/>
</g>
<!-- RouterModule.forRoot(args) -->
<g id="node6" class="node">
<title>RouterModule.forRoot(args)</title>
<polygon fill="#8dd3c7" stroke="black" points="768.84,-122 765.84,-126 744.84,-126 741.84,-122 591.16,-122 591.16,-86 768.84,-86 768.84,-122"/>
<text text-anchor="middle" x="680" y="-99.8" font-family="Times,serif" font-size="14.00">RouterModule.forRoot(args)</text>
</g>
<!-- RouterModule.forRoot(args)&#45;&gt;AppModule -->
<g id="edge5" class="edge">
<title>RouterModule.forRoot(args)&#45;&gt;AppModule</title>
<path fill="none" stroke="black" d="M680,-122.03C680,-139.06 680,-162 680,-162 680,-162 957.33,-162 957.33,-162"/>
<polygon fill="black" stroke="black" points="957.33,-165.5 967.33,-162 957.33,-158.5 957.33,-165.5"/>
</g>
<!-- MatToolbarModule -->
<g id="node7" class="node">
<title>MatToolbarModule</title>
<polygon fill="#8dd3c7" stroke="black" points="573.42,-122 570.42,-126 549.42,-126 546.42,-122 446.58,-122 446.58,-86 573.42,-86 573.42,-122"/>
<text text-anchor="middle" x="510" y="-99.8" font-family="Times,serif" font-size="14.00">MatToolbarModule</text>
</g>
<!-- MatToolbarModule&#45;&gt;AppModule -->
<g id="edge6" class="edge">
<title>MatToolbarModule&#45;&gt;AppModule</title>
<path fill="none" stroke="black" d="M510,-122.22C510,-140.83 510,-167 510,-167 510,-167 957.31,-167 957.31,-167"/>
<polygon fill="black" stroke="black" points="957.31,-170.5 967.31,-167 957.31,-163.5 957.31,-170.5"/>
</g>
<!-- AuthModule -->
<g id="node8" class="node">
<title>AuthModule</title>
<polygon fill="#8dd3c7" stroke="black" points="428.55,-122 425.55,-126 404.55,-126 401.55,-122 341.45,-122 341.45,-86 428.55,-86 428.55,-122"/>
<text text-anchor="middle" x="385" y="-99.8" font-family="Times,serif" font-size="14.00">AuthModule</text>
</g>
<!-- AuthModule&#45;&gt;AppModule -->
<g id="edge7" class="edge">
<title>AuthModule&#45;&gt;AppModule</title>
<path fill="none" stroke="black" d="M385,-122.22C385,-142.37 385,-172 385,-172 385,-172 957.09,-172 957.09,-172"/>
<polygon fill="black" stroke="black" points="957.09,-175.5 967.09,-172 957.09,-168.5 957.09,-175.5"/>
</g>
<!-- MainModule -->
<g id="node9" class="node">
<title>MainModule</title>
<polygon fill="#8dd3c7" stroke="black" points="323.6,-122 320.6,-126 299.6,-126 296.6,-122 234.4,-122 234.4,-86 323.6,-86 323.6,-122"/>
<text text-anchor="middle" x="279" y="-99.8" font-family="Times,serif" font-size="14.00">MainModule</text>
</g>
<!-- MainModule&#45;&gt;AppModule -->
<g id="edge8" class="edge">
<title>MainModule&#45;&gt;AppModule</title>
<path fill="none" stroke="black" d="M279,-122.04C279,-143.66 279,-177 279,-177 279,-177 957.13,-177 957.13,-177"/>
<polygon fill="black" stroke="black" points="957.13,-180.5 967.13,-177 957.13,-173.5 957.13,-180.5"/>
</g>
<!-- GraphQLModule.forRoot(args) -->
<g id="node10" class="node">
<title>GraphQLModule.forRoot(args)</title>
<polygon fill="#8dd3c7" stroke="black" points="216.38,-122 213.38,-126 192.38,-126 189.38,-122 23.62,-122 23.62,-86 216.38,-86 216.38,-122"/>
<text text-anchor="middle" x="120" y="-99.8" font-family="Times,serif" font-size="14.00">GraphQLModule.forRoot(args)</text>
</g>
<!-- GraphQLModule.forRoot(args)&#45;&gt;AppModule -->
<g id="edge9" class="edge">
<title>GraphQLModule.forRoot(args)&#45;&gt;AppModule</title>
<path fill="none" stroke="black" d="M120,-122.09C120,-145.13 120,-182 120,-182 120,-182 957.31,-182 957.31,-182"/>
<polygon fill="black" stroke="black" points="957.31,-185.5 967.31,-182 957.31,-178.5 957.31,-185.5"/>
</g>
<!-- Location -->
<g id="node12" class="node">
<title>Location</title>
<ellipse fill="#fdb462" stroke="black" cx="2914" cy="-104" rx="45.22" ry="18"/>
<text text-anchor="middle" x="2914" y="-99.8" font-family="Times,serif" font-size="14.00">Location</text>
</g>
<!-- Location&#45;&gt;AppModule -->
<g id="edge11" class="edge">
<title>Location&#45;&gt;AppModule</title>
<path fill="none" stroke="black" d="M2914,-122.04C2914,-143.66 2914,-177 2914,-177 2914,-177 1061.01,-177 1061.01,-177"/>
<polygon fill="black" stroke="black" points="1061.01,-173.5 1051.01,-177 1061.01,-180.5 1061.01,-173.5"/>
</g>
<!-- { provide: LocationStrategy, useClass: HashLocationStrategy } -->
<g id="node13" class="node">
<title>{ provide: LocationStrategy, useClass: HashLocationStrategy }</title>
<ellipse fill="#fdb462" stroke="black" cx="2594" cy="-104" rx="256.11" ry="18"/>
<text text-anchor="middle" x="2594" y="-99.8" font-family="Times,serif" font-size="14.00">{ provide: LocationStrategy, useClass: HashLocationStrategy }</text>
</g>
<!-- { provide: LocationStrategy, useClass: HashLocationStrategy }&#45;&gt;AppModule -->
<g id="edge12" class="edge">
<title>{ provide: LocationStrategy, useClass: HashLocationStrategy }&#45;&gt;AppModule</title>
<path fill="none" stroke="black" d="M2594,-122.22C2594,-142.37 2594,-172 2594,-172 2594,-172 1060.99,-172 1060.99,-172"/>
<polygon fill="black" stroke="black" points="1060.99,-168.5 1050.99,-172 1060.99,-175.5 1060.99,-168.5"/>
</g>
<!-- { provide: HTTP_INTERCEPTORS, useClass: HttpRequestInterceptor, multi: &#160;} -->
<g id="node14" class="node">
<title>{ provide: HTTP_INTERCEPTORS, useClass: HttpRequestInterceptor, multi: &#160;}</title>
<ellipse fill="#fdb462" stroke="black" cx="1996" cy="-104" rx="324.36" ry="18"/>
<text text-anchor="middle" x="1996" y="-99.8" font-family="Times,serif" font-size="14.00">{ provide: HTTP_INTERCEPTORS, useClass: HttpRequestInterceptor, multi: &#160;}</text>
</g>
<!-- { provide: HTTP_INTERCEPTORS, useClass: HttpRequestInterceptor, multi: &#160;}&#45;&gt;AppModule -->
<g id="edge13" class="edge">
<title>{ provide: HTTP_INTERCEPTORS, useClass: HttpRequestInterceptor, multi: &#160;}&#45;&gt;AppModule</title>
<path fill="none" stroke="black" d="M1996,-122.22C1996,-140.83 1996,-167 1996,-167 1996,-167 1060.78,-167 1060.78,-167"/>
<polygon fill="black" stroke="black" points="1060.78,-163.5 1050.78,-167 1060.78,-170.5 1060.78,-163.5"/>
</g>
<!-- { provide: Environment, useValue: environment } -->
<g id="node15" class="node">
<title>{ provide: Environment, useValue: environment }</title>
<ellipse fill="#fdb462" stroke="black" cx="1449" cy="-104" rx="204.64" ry="18"/>
<text text-anchor="middle" x="1449" y="-99.8" font-family="Times,serif" font-size="14.00">{ provide: Environment, useValue: environment }</text>
</g>
<!-- { provide: Environment, useValue: environment }&#45;&gt;AppModule -->
<g id="edge14" class="edge">
<title>{ provide: Environment, useValue: environment }&#45;&gt;AppModule</title>
<path fill="none" stroke="black" d="M1449,-122.03C1449,-139.06 1449,-162 1449,-162 1449,-162 1060.79,-162 1060.79,-162"/>
<polygon fill="black" stroke="black" points="1060.79,-158.5 1050.79,-162 1060.79,-165.5 1060.79,-158.5"/>
</g>
</g>
</svg>
