<?xml version="1.0" encoding="UTF-8" standalone="no"?>
<!DOCTYPE svg PUBLIC "-//W3C//DTD SVG 1.1//EN"
 "http://www.w3.org/Graphics/SVG/1.1/DTD/svg11.dtd">
<!-- Generated by graphviz version 2.40.1 (20161225.0304)
 -->
<!-- Title: dependencies Pages: 1 -->
<svg width="521pt" height="211pt"
 viewBox="0.00 0.00 521.00 211.00" xmlns="http://www.w3.org/2000/svg" xmlns:xlink="http://www.w3.org/1999/xlink">
<g id="graph0" class="graph" transform="scale(1 1) rotate(0) translate(4 207)">
<title>dependencies</title>
<polygon fill="#ffffff" stroke="transparent" points="-4,4 -4,-207 517,-207 517,4 -4,4"/>
<text text-anchor="start" x="235.5091" y="-42.4" font-family="sans-serif" font-weight="bold" font-size="14.00" fill="#000000">Legend</text>
<polygon fill="#ffffb3" stroke="transparent" points="22.5,-10 22.5,-30 42.5,-30 42.5,-10 22.5,-10"/>
<text text-anchor="start" x="46.129" y="-15.4" font-family="sans-serif" font-size="14.00" fill="#000000"> &#160;Declarations</text>
<polygon fill="#8dd3c7" stroke="transparent" points="135.5,-10 135.5,-30 155.5,-30 155.5,-10 135.5,-10"/>
<text text-anchor="start" x="159.2251" y="-15.4" font-family="sans-serif" font-size="14.00" fill="#000000"> &#160;Module</text>
<polygon fill="#80b1d3" stroke="transparent" points="221.5,-10 221.5,-30 241.5,-30 241.5,-10 221.5,-10"/>
<text text-anchor="start" x="245.2812" y="-15.4" font-family="sans-serif" font-size="14.00" fill="#000000"> &#160;Bootstrap</text>
<polygon fill="#fdb462" stroke="transparent" points="318.5,-10 318.5,-30 338.5,-30 338.5,-10 318.5,-10"/>
<text text-anchor="start" x="342.1732" y="-15.4" font-family="sans-serif" font-size="14.00" fill="#000000"> &#160;Providers</text>
<polygon fill="#fb8072" stroke="transparent" points="414.5,-10 414.5,-30 434.5,-30 434.5,-10 414.5,-10"/>
<text text-anchor="start" x="438.2258" y="-15.4" font-family="sans-serif" font-size="14.00" fill="#000000"> &#160;Exports</text>
<g id="clust1" class="cluster">
<title>cluster_AppModule</title>
<polygon fill="none" stroke="#000000" stroke-dasharray="1,5" points="8,-70 8,-195 505,-195 505,-70 8,-70"/>
</g>
<g id="clust3" class="cluster">
<title>cluster_AppModule_imports</title>
<polygon fill="none" stroke="#000000" points="16,-78 16,-130 497,-130 497,-78 16,-78"/>
</g>
<!-- ConfigModule -->
<g id="node1" class="node">
<title>ConfigModule</title>
<polygon fill="#8dd3c7" stroke="#000000" points="489.4386,-122 486.4386,-126 465.4386,-126 462.4386,-122 390.5614,-122 390.5614,-86 489.4386,-86 489.4386,-122"/>
<text text-anchor="middle" x="440" y="-99.8" font-family="Times,serif" font-size="14.00" fill="#000000">ConfigModule</text>
</g>
<!-- AppModule -->
<g id="node5" class="node">
<title>AppModule</title>
<polygon fill="#8dd3c7" stroke="#000000" points="320.6571,-187 317.6571,-191 296.6571,-191 293.6571,-187 237.3429,-187 237.3429,-151 320.6571,-151 320.6571,-187"/>
<text text-anchor="middle" x="279" y="-164.8" font-family="Times,serif" font-size="14.00" fill="#000000">AppModule</text>
</g>
<!-- ConfigModule&#45;&gt;AppModule -->
<g id="edge1" class="edge">
<title>ConfigModule&#45;&gt;AppModule</title>
<path fill="none" stroke="#000000" d="M440,-122.1061C440,-141.3391 440,-169 440,-169 440,-169 330.8806,-169 330.8806,-169"/>
<polygon fill="#000000" stroke="#000000" points="330.8806,-165.5001 320.8806,-169 330.8805,-172.5001 330.8806,-165.5001"/>
</g>
<!-- JwtModule -->
<g id="node2" class="node">
<title>JwtModule</title>
<polygon fill="#8dd3c7" stroke="#000000" points="372.4916,-122 369.4916,-126 348.4916,-126 345.4916,-122 293.5084,-122 293.5084,-86 372.4916,-86 372.4916,-122"/>
<text text-anchor="middle" x="333" y="-99.8" font-family="Times,serif" font-size="14.00" fill="#000000">JwtModule</text>
</g>
<!-- JwtModule&#45;&gt;AppModule -->
<g id="edge2" class="edge">
<title>JwtModule&#45;&gt;AppModule</title>
<path fill="none" stroke="#000000" d="M307.1662,-122.1061C307.1662,-122.1061 307.1662,-140.991 307.1662,-140.991"/>
<polygon fill="#000000" stroke="#000000" points="303.6663,-140.9909 307.1662,-150.991 310.6663,-140.991 303.6663,-140.9909"/>
</g>
<!-- PrismaModule -->
<g id="node3" class="node">
<title>PrismaModule</title>
<polygon fill="#8dd3c7" stroke="#000000" points="275.4344,-122 272.4344,-126 251.4344,-126 248.4344,-122 176.5656,-122 176.5656,-86 275.4344,-86 275.4344,-122"/>
<text text-anchor="middle" x="226" y="-99.8" font-family="Times,serif" font-size="14.00" fill="#000000">PrismaModule</text>
</g>
<!-- PrismaModule&#45;&gt;AppModule -->
<g id="edge3" class="edge">
<title>PrismaModule&#45;&gt;AppModule</title>
<path fill="none" stroke="#000000" d="M256.1943,-122.1061C256.1943,-122.1061 256.1943,-140.991 256.1943,-140.991"/>
<polygon fill="#000000" stroke="#000000" points="252.6943,-140.9909 256.1943,-150.991 259.6943,-140.991 252.6943,-140.9909"/>
</g>
<!-- ZenGraphQLModule -->
<g id="node4" class="node">
<title>ZenGraphQLModule</title>
<polygon fill="#8dd3c7" stroke="#000000" points="158.458,-122 155.458,-126 134.458,-126 131.458,-122 23.542,-122 23.542,-86 158.458,-86 158.458,-122"/>
<text text-anchor="middle" x="91" y="-99.8" font-family="Times,serif" font-size="14.00" fill="#000000">ZenGraphQLModule</text>
</g>
<!-- ZenGraphQLModule&#45;&gt;AppModule -->
<g id="edge4" class="edge">
<title>ZenGraphQLModule&#45;&gt;AppModule</title>
<path fill="none" stroke="#000000" d="M91,-122.1061C91,-141.3391 91,-169 91,-169 91,-169 227.2767,-169 227.2767,-169"/>
<polygon fill="#000000" stroke="#000000" points="227.2767,-172.5001 237.2767,-169 227.2767,-165.5001 227.2767,-172.5001"/>
</g>
</g>
</svg>
