<?xml version="1.0" encoding="UTF-8" standalone="no"?>
<!DOCTYPE svg PUBLIC "-//W3C//DTD SVG 1.1//EN"
 "http://www.w3.org/Graphics/SVG/1.1/DTD/svg11.dtd">
<!-- Generated by graphviz version 2.40.1 (20161225.0304)
 -->
<!-- Title: dependencies Pages: 1 -->
<svg width="504pt" height="211pt"
 viewBox="0.00 0.00 504.00 211.00" xmlns="http://www.w3.org/2000/svg" xmlns:xlink="http://www.w3.org/1999/xlink">
<g id="graph0" class="graph" transform="scale(1 1) rotate(0) translate(4 207)">
<title>dependencies</title>
<polygon fill="#ffffff" stroke="transparent" points="-4,4 -4,-207 500,-207 500,4 -4,4"/>
<text text-anchor="start" x="227.0091" y="-42.4" font-family="sans-serif" font-weight="bold" font-size="14.00" fill="#000000">Legend</text>
<polygon fill="#ffffb3" stroke="transparent" points="14,-10 14,-30 34,-30 34,-10 14,-10"/>
<text text-anchor="start" x="37.629" y="-15.4" font-family="sans-serif" font-size="14.00" fill="#000000"> &#160;Declarations</text>
<polygon fill="#8dd3c7" stroke="transparent" points="127,-10 127,-30 147,-30 147,-10 127,-10"/>
<text text-anchor="start" x="150.7251" y="-15.4" font-family="sans-serif" font-size="14.00" fill="#000000"> &#160;Module</text>
<polygon fill="#80b1d3" stroke="transparent" points="213,-10 213,-30 233,-30 233,-10 213,-10"/>
<text text-anchor="start" x="236.7812" y="-15.4" font-family="sans-serif" font-size="14.00" fill="#000000"> &#160;Bootstrap</text>
<polygon fill="#fdb462" stroke="transparent" points="310,-10 310,-30 330,-30 330,-10 310,-10"/>
<text text-anchor="start" x="333.6732" y="-15.4" font-family="sans-serif" font-size="14.00" fill="#000000"> &#160;Providers</text>
<polygon fill="#fb8072" stroke="transparent" points="406,-10 406,-30 426,-30 426,-10 406,-10"/>
<text text-anchor="start" x="429.7258" y="-15.4" font-family="sans-serif" font-size="14.00" fill="#000000"> &#160;Exports</text>
<g id="clust1" class="cluster">
<title>cluster_ZenGraphQLModule</title>
<polygon fill="none" stroke="#000000" stroke-dasharray="1,5" points="78,-70 78,-195 418,-195 418,-70 78,-70"/>
</g>
<g id="clust3" class="cluster">
<title>cluster_ZenGraphQLModule_imports</title>
<polygon fill="none" stroke="#000000" points="86,-78 86,-130 410,-130 410,-78 86,-78"/>
</g>
<!-- AuthModule -->
<g id="node1" class="node">
<title>AuthModule</title>
<polygon fill="#8dd3c7" stroke="#000000" points="401.5482,-122 398.5482,-126 377.5482,-126 374.5482,-122 314.4518,-122 314.4518,-86 401.5482,-86 401.5482,-122"/>
<text text-anchor="middle" x="358" y="-99.8" font-family="Times,serif" font-size="14.00" fill="#000000">AuthModule</text>
</g>
<!-- ZenGraphQLModule -->
<g id="node4" class="node">
<title>ZenGraphQLModule</title>
<polygon fill="#8dd3c7" stroke="#000000" points="320.458,-187 317.458,-191 296.458,-191 293.458,-187 185.542,-187 185.542,-151 320.458,-151 320.458,-187"/>
<text text-anchor="middle" x="253" y="-164.8" font-family="Times,serif" font-size="14.00" fill="#000000">ZenGraphQLModule</text>
</g>
<!-- AuthModule&#45;&gt;ZenGraphQLModule -->
<g id="edge1" class="edge">
<title>AuthModule&#45;&gt;ZenGraphQLModule</title>
<path fill="none" stroke="#000000" d="M314.3234,-104C308.8425,-104 305.1108,-104 305.1108,-104 305.1108,-104 305.1108,-140.8939 305.1108,-140.8939"/>
<polygon fill="#000000" stroke="#000000" points="301.6109,-140.8938 305.1108,-150.8939 308.6109,-140.8939 301.6109,-140.8938"/>
</g>
<!-- MailModule -->
<g id="node2" class="node">
<title>MailModule</title>
<polygon fill="#8dd3c7" stroke="#000000" points="295.9902,-122 292.9902,-126 271.9902,-126 268.9902,-122 210.0098,-122 210.0098,-86 295.9902,-86 295.9902,-122"/>
<text text-anchor="middle" x="253" y="-99.8" font-family="Times,serif" font-size="14.00" fill="#000000">MailModule</text>
</g>
<!-- MailModule&#45;&gt;ZenGraphQLModule -->
<g id="edge2" class="edge">
<title>MailModule&#45;&gt;ZenGraphQLModule</title>
<path fill="none" stroke="#000000" d="M253,-122.1061C253,-122.1061 253,-140.991 253,-140.991"/>
<polygon fill="#000000" stroke="#000000" points="249.5001,-140.9909 253,-150.991 256.5001,-140.991 249.5001,-140.9909"/>
</g>
<!-- PrismaModule -->
<g id="node3" class="node">
<title>PrismaModule</title>
<polygon fill="#8dd3c7" stroke="#000000" points="192.4344,-122 189.4344,-126 168.4344,-126 165.4344,-122 93.5656,-122 93.5656,-86 192.4344,-86 192.4344,-122"/>
<text text-anchor="middle" x="143" y="-99.8" font-family="Times,serif" font-size="14.00" fill="#000000">PrismaModule</text>
</g>
<!-- PrismaModule&#45;&gt;ZenGraphQLModule -->
<g id="edge3" class="edge">
<title>PrismaModule&#45;&gt;ZenGraphQLModule</title>
<path fill="none" stroke="#000000" d="M192.5364,-104C197.7023,-104 201.1108,-104 201.1108,-104 201.1108,-104 201.1108,-140.8939 201.1108,-140.8939"/>
<polygon fill="#000000" stroke="#000000" points="197.6109,-140.8938 201.1108,-150.8939 204.6109,-140.8939 197.6109,-140.8938"/>
</g>
</g>
</svg>
