<?xml version="1.0" encoding="UTF-8" standalone="no"?>
<!DOCTYPE svg PUBLIC "-//W3C//DTD SVG 1.1//EN"
 "http://www.w3.org/Graphics/SVG/1.1/DTD/svg11.dtd">
<!-- Generated by graphviz version 2.40.1 (20161225.0304)
 -->
<!-- Title: dependencies Pages: 1 -->
<svg width="958pt" height="222pt"
 viewBox="0.00 0.00 958.00 222.00" xmlns="http://www.w3.org/2000/svg" xmlns:xlink="http://www.w3.org/1999/xlink">
<g id="graph0" class="graph" transform="scale(1 1) rotate(0) translate(4 218)">
<title>dependencies</title>
<polygon fill="#ffffff" stroke="transparent" points="-4,4 -4,-218 954,-218 954,4 -4,4"/>
<text text-anchor="start" x="454.0091" y="-42.4" font-family="sans-serif" font-weight="bold" font-size="14.00" fill="#000000">Legend</text>
<polygon fill="#ffffb3" stroke="transparent" points="241,-10 241,-30 261,-30 261,-10 241,-10"/>
<text text-anchor="start" x="264.629" y="-15.4" font-family="sans-serif" font-size="14.00" fill="#000000"> &#160;Declarations</text>
<polygon fill="#8dd3c7" stroke="transparent" points="354,-10 354,-30 374,-30 374,-10 354,-10"/>
<text text-anchor="start" x="377.7251" y="-15.4" font-family="sans-serif" font-size="14.00" fill="#000000"> &#160;Module</text>
<polygon fill="#80b1d3" stroke="transparent" points="440,-10 440,-30 460,-30 460,-10 440,-10"/>
<text text-anchor="start" x="463.7812" y="-15.4" font-family="sans-serif" font-size="14.00" fill="#000000"> &#160;Bootstrap</text>
<polygon fill="#fdb462" stroke="transparent" points="537,-10 537,-30 557,-30 557,-10 537,-10"/>
<text text-anchor="start" x="560.6732" y="-15.4" font-family="sans-serif" font-size="14.00" fill="#000000"> &#160;Providers</text>
<polygon fill="#fb8072" stroke="transparent" points="633,-10 633,-30 653,-30 653,-10 633,-10"/>
<text text-anchor="start" x="656.7258" y="-15.4" font-family="sans-serif" font-size="14.00" fill="#000000"> &#160;Exports</text>
<g id="clust1" class="cluster">
<title>cluster_AppModule</title>
<polygon fill="none" stroke="#000000" stroke-dasharray="1,5" points="8,-70 8,-198 504,-198 504,-70 8,-70"/>
</g>
<g id="clust3" class="cluster">
<title>cluster_AppModule_imports</title>
<polygon fill="none" stroke="#000000" points="16,-78 16,-130 496,-130 496,-78 16,-78"/>
</g>
<g id="clust7" class="cluster">
<title>cluster_ConfigModule</title>
<polygon fill="none" stroke="#000000" stroke-dasharray="1,5" points="512,-138 512,-206 644,-206 644,-138 512,-138"/>
</g>
<g id="clust10" class="cluster">
<title>cluster_ConfigModule_exports</title>
<polygon fill="none" stroke="#000000" points="520,-146 520,-198 636,-198 636,-146 520,-146"/>
</g>
<g id="clust19" class="cluster">
<title>cluster_PrismaModule</title>
<polygon fill="none" stroke="#000000" stroke-dasharray="1,5" points="652,-138 652,-206 942,-206 942,-138 652,-138"/>
</g>
<g id="clust22" class="cluster">
<title>cluster_PrismaModule_exports</title>
<polygon fill="none" stroke="#000000" points="818,-146 818,-198 934,-198 934,-146 818,-146"/>
</g>
<g id="clust24" class="cluster">
<title>cluster_PrismaModule_providers</title>
<polygon fill="none" stroke="#000000" points="660,-146 660,-198 810,-198 810,-146 660,-146"/>
</g>
<!-- ConfigModule -->
<g id="node1" class="node">
<title>ConfigModule</title>
<polygon fill="#8dd3c7" stroke="#000000" points="372.4386,-122 369.4386,-126 348.4386,-126 345.4386,-122 273.5614,-122 273.5614,-86 372.4386,-86 372.4386,-122"/>
<text text-anchor="middle" x="323" y="-99.8" font-family="Times,serif" font-size="14.00" fill="#000000">ConfigModule</text>
</g>
<!-- AppModule -->
<g id="node5" class="node">
<title>AppModule</title>
<polygon fill="#8dd3c7" stroke="#000000" points="296.6571,-190 293.6571,-194 272.6571,-194 269.6571,-190 213.3429,-190 213.3429,-154 296.6571,-154 296.6571,-190"/>
<text text-anchor="middle" x="255" y="-167.8" font-family="Times,serif" font-size="14.00" fill="#000000">AppModule</text>
</g>
<!-- ConfigModule&#45;&gt;AppModule -->
<g id="edge1" class="edge">
<title>ConfigModule&#45;&gt;AppModule</title>
<path fill="none" stroke="#000000" d="M285.3047,-122.2228C285.3047,-122.2228 285.3047,-143.7269 285.3047,-143.7269"/>
<polygon fill="#000000" stroke="#000000" points="281.8048,-143.7269 285.3047,-153.7269 288.8048,-143.727 281.8048,-143.7269"/>
</g>
<!-- ConfigService  -->
<g id="node6" class="node">
<title>ConfigService </title>
<polygon fill="#fb8072" stroke="#000000" points="628.3661,-190 527.6339,-190 527.6339,-154 628.3661,-154 628.3661,-190"/>
<text text-anchor="middle" x="578" y="-167.8" font-family="Times,serif" font-size="14.00" fill="#000000">ConfigService </text>
</g>
<!-- ConfigModule&#45;&gt;ConfigService  -->
<g id="edge5" class="edge">
<title>ConfigModule&#45;&gt;ConfigService </title>
<path fill="none" stroke="#000000" stroke-dasharray="5,2" d="M334.5235,-122.2921C334.5235,-144.2057 334.5235,-178 334.5235,-178 334.5235,-178 517.5515,-178 517.5515,-178"/>
<polygon fill="#000000" stroke="#000000" points="517.5515,-181.5001 527.5515,-178 517.5515,-174.5001 517.5515,-181.5001"/>
</g>
<!-- JwtModule -->
<g id="node2" class="node">
<title>JwtModule</title>
<polygon fill="#8dd3c7" stroke="#000000" points="102.4916,-122 99.4916,-126 78.4916,-126 75.4916,-122 23.5084,-122 23.5084,-86 102.4916,-86 102.4916,-122"/>
<text text-anchor="middle" x="63" y="-99.8" font-family="Times,serif" font-size="14.00" fill="#000000">JwtModule</text>
</g>
<!-- JwtModule&#45;&gt;AppModule -->
<g id="edge2" class="edge">
<title>JwtModule&#45;&gt;AppModule</title>
<path fill="none" stroke="#000000" d="M63,-122.2228C63,-142.3652 63,-172 63,-172 63,-172 203.3389,-172 203.3389,-172"/>
<polygon fill="#000000" stroke="#000000" points="203.3389,-175.5001 213.3389,-172 203.3388,-168.5001 203.3389,-175.5001"/>
</g>
<!-- PrismaModule -->
<g id="node3" class="node">
<title>PrismaModule</title>
<polygon fill="#8dd3c7" stroke="#000000" points="488.4344,-122 485.4344,-126 464.4344,-126 461.4344,-122 389.5656,-122 389.5656,-86 488.4344,-86 488.4344,-122"/>
<text text-anchor="middle" x="439" y="-99.8" font-family="Times,serif" font-size="14.00" fill="#000000">PrismaModule</text>
</g>
<!-- PrismaModule&#45;&gt;AppModule -->
<g id="edge3" class="edge">
<title>PrismaModule&#45;&gt;AppModule</title>
<path fill="none" stroke="#000000" d="M439,-122.2667C439,-140.5552 439,-166 439,-166 439,-166 306.7524,-166 306.7524,-166"/>
<polygon fill="#000000" stroke="#000000" points="306.7525,-162.5001 296.7524,-166 306.7524,-169.5001 306.7525,-162.5001"/>
</g>
<!-- PrismaService  -->
<g id="node7" class="node">
<title>PrismaService </title>
<polygon fill="#fb8072" stroke="#000000" points="926.3619,-190 825.6381,-190 825.6381,-154 926.3619,-154 926.3619,-190"/>
<text text-anchor="middle" x="876" y="-167.8" font-family="Times,serif" font-size="14.00" fill="#000000">PrismaService </text>
</g>
<!-- PrismaModule&#45;&gt;PrismaService  -->
<g id="edge6" class="edge">
<title>PrismaModule&#45;&gt;PrismaService </title>
<path fill="none" stroke="#000000" stroke-dasharray="5,2" d="M488.28,-98C602.5666,-98 876,-98 876,-98 876,-98 876,-143.7079 876,-143.7079"/>
<polygon fill="#000000" stroke="#000000" points="872.5001,-143.7078 876,-153.7079 879.5001,-143.7079 872.5001,-143.7078"/>
</g>
<!-- ZenGraphQLModule -->
<g id="node4" class="node">
<title>ZenGraphQLModule</title>
<polygon fill="#8dd3c7" stroke="#000000" points="255.458,-122 252.458,-126 231.458,-126 228.458,-122 120.542,-122 120.542,-86 255.458,-86 255.458,-122"/>
<text text-anchor="middle" x="188" y="-99.8" font-family="Times,serif" font-size="14.00" fill="#000000">ZenGraphQLModule</text>
</g>
<!-- ZenGraphQLModule&#45;&gt;AppModule -->
<g id="edge4" class="edge">
<title>ZenGraphQLModule&#45;&gt;AppModule</title>
<path fill="none" stroke="#000000" d="M234.3254,-122.2228C234.3254,-122.2228 234.3254,-143.7269 234.3254,-143.7269"/>
<polygon fill="#000000" stroke="#000000" points="230.8255,-143.7269 234.3254,-153.7269 237.8255,-143.727 230.8255,-143.7269"/>
</g>
<!-- PrismaService -->
<g id="node8" class="node">
<title>PrismaService</title>
<ellipse fill="#fdb462" stroke="#000000" cx="735" cy="-172" rx="66.6267" ry="18"/>
<text text-anchor="middle" x="735" y="-167.8" font-family="Times,serif" font-size="14.00" fill="#000000">PrismaService</text>
</g>
<!-- PrismaService&#45;&gt;PrismaModule -->
<g id="edge7" class="edge">
<title>PrismaService&#45;&gt;PrismaModule</title>
<path fill="none" stroke="#000000" d="M735,-153.7333C735,-135.4448 735,-110 735,-110 735,-110 498.5437,-110 498.5437,-110"/>
<polygon fill="#000000" stroke="#000000" points="498.5438,-106.5001 488.5437,-110 498.5437,-113.5001 498.5438,-106.5001"/>
</g>
</g>
</svg>
