<?xml version="1.0" encoding="UTF-8" standalone="no"?>
<!DOCTYPE svg PUBLIC "-//W3C//DTD SVG 1.1//EN"
 "http://www.w3.org/Graphics/SVG/1.1/DTD/svg11.dtd">
<!-- Generated by graphviz version 2.40.1 (20161225.0304)
 -->
<!-- Title: dependencies Pages: 1 -->
<svg width="1368pt" height="358pt"
 viewBox="0.00 0.00 1368.00 358.00" xmlns="http://www.w3.org/2000/svg" xmlns:xlink="http://www.w3.org/1999/xlink">
<g id="graph0" class="graph" transform="scale(1 1) rotate(0) translate(4 354)">
<title>dependencies</title>
<polygon fill="#ffffff" stroke="transparent" points="-4,4 -4,-354 1364,-354 1364,4 -4,4"/>
<text text-anchor="start" x="659.0091" y="-42.4" font-family="sans-serif" font-weight="bold" font-size="14.00" fill="#000000">Legend</text>
<polygon fill="#ffffb3" stroke="transparent" points="446,-10 446,-30 466,-30 466,-10 446,-10"/>
<text text-anchor="start" x="469.629" y="-15.4" font-family="sans-serif" font-size="14.00" fill="#000000"> &#160;Declarations</text>
<polygon fill="#8dd3c7" stroke="transparent" points="559,-10 559,-30 579,-30 579,-10 559,-10"/>
<text text-anchor="start" x="582.7251" y="-15.4" font-family="sans-serif" font-size="14.00" fill="#000000"> &#160;Module</text>
<polygon fill="#80b1d3" stroke="transparent" points="645,-10 645,-30 665,-30 665,-10 645,-10"/>
<text text-anchor="start" x="668.7812" y="-15.4" font-family="sans-serif" font-size="14.00" fill="#000000"> &#160;Bootstrap</text>
<polygon fill="#fdb462" stroke="transparent" points="742,-10 742,-30 762,-30 762,-10 742,-10"/>
<text text-anchor="start" x="765.6732" y="-15.4" font-family="sans-serif" font-size="14.00" fill="#000000"> &#160;Providers</text>
<polygon fill="#fb8072" stroke="transparent" points="838,-10 838,-30 858,-30 858,-10 838,-10"/>
<text text-anchor="start" x="861.7258" y="-15.4" font-family="sans-serif" font-size="14.00" fill="#000000"> &#160;Exports</text>
<g id="clust1" class="cluster">
<title>cluster_AppModule</title>
<polygon fill="none" stroke="#000000" stroke-dasharray="1,5" points="853,-138 853,-334 1196,-334 1196,-138 853,-138"/>
</g>
<g id="clust3" class="cluster">
<title>cluster_AppModule_imports</title>
<polygon fill="none" stroke="#000000" points="861,-146 861,-266 1188,-266 1188,-146 861,-146"/>
</g>
<g id="clust7" class="cluster">
<title>cluster_AuthModule</title>
<polygon fill="none" stroke="#000000" stroke-dasharray="1,5" points="8,-138 8,-342 407,-342 407,-138 8,-138"/>
</g>
<g id="clust10" class="cluster">
<title>cluster_AuthModule_exports</title>
<polygon fill="none" stroke="#000000" points="100,-282 100,-334 399,-334 399,-282 100,-282"/>
</g>
<g id="clust12" class="cluster">
<title>cluster_AuthModule_providers</title>
<polygon fill="none" stroke="#000000" points="16,-146 16,-198 399,-198 399,-146 16,-146"/>
</g>
<g id="clust13" class="cluster">
<title>cluster_ConfigModule</title>
<polygon fill="none" stroke="#000000" stroke-dasharray="1,5" points="713,-206 713,-274 845,-274 845,-206 713,-206"/>
</g>
<g id="clust16" class="cluster">
<title>cluster_ConfigModule_exports</title>
<polygon fill="none" stroke="#000000" points="721,-214 721,-266 837,-266 837,-214 721,-214"/>
</g>
<g id="clust25" class="cluster">
<title>cluster_MailModule</title>
<polygon fill="none" stroke="#000000" stroke-dasharray="1,5" points="1204,-70 1204,-274 1352,-274 1352,-70 1204,-70"/>
</g>
<g id="clust28" class="cluster">
<title>cluster_MailModule_exports</title>
<polygon fill="none" stroke="#000000" points="1212,-214 1212,-266 1316,-266 1316,-214 1212,-214"/>
</g>
<g id="clust30" class="cluster">
<title>cluster_MailModule_providers</title>
<polygon fill="none" stroke="#000000" points="1212,-78 1212,-130 1344,-130 1344,-78 1212,-78"/>
</g>
<g id="clust31" class="cluster">
<title>cluster_PrismaModule</title>
<polygon fill="none" stroke="#000000" stroke-dasharray="1,5" points="415,-206 415,-274 705,-274 705,-206 415,-206"/>
</g>
<g id="clust34" class="cluster">
<title>cluster_PrismaModule_exports</title>
<polygon fill="none" stroke="#000000" points="581,-214 581,-266 697,-266 697,-214 581,-214"/>
</g>
<g id="clust36" class="cluster">
<title>cluster_PrismaModule_providers</title>
<polygon fill="none" stroke="#000000" points="423,-214 423,-266 573,-266 573,-214 423,-214"/>
</g>
<!-- ConfigModule -->
<g id="node1" class="node">
<title>ConfigModule</title>
<polygon fill="#8dd3c7" stroke="#000000" points="1180.4386,-190 1177.4386,-194 1156.4386,-194 1153.4386,-190 1081.5614,-190 1081.5614,-154 1180.4386,-154 1180.4386,-190"/>
<text text-anchor="middle" x="1131" y="-167.8" font-family="Times,serif" font-size="14.00" fill="#000000">ConfigModule</text>
</g>
<!-- AppModule -->
<g id="node5" class="node">
<title>AppModule</title>
<polygon fill="#8dd3c7" stroke="#000000" points="1038.6571,-326 1035.6571,-330 1014.6571,-330 1011.6571,-326 955.3429,-326 955.3429,-290 1038.6571,-290 1038.6571,-326"/>
<text text-anchor="middle" x="997" y="-303.8" font-family="Times,serif" font-size="14.00" fill="#000000">AppModule</text>
</g>
<!-- ConfigModule&#45;&gt;AppModule -->
<g id="edge1" class="edge">
<title>ConfigModule&#45;&gt;AppModule</title>
<path fill="none" stroke="#000000" d="M1170.3489,-190.0597C1170.3489,-227.0544 1170.3489,-308 1170.3489,-308 1170.3489,-308 1048.9629,-308 1048.9629,-308"/>
<polygon fill="#000000" stroke="#000000" points="1048.963,-304.5001 1038.9629,-308 1048.9629,-311.5001 1048.963,-304.5001"/>
</g>
<!-- ConfigService  -->
<g id="node13" class="node">
<title>ConfigService </title>
<polygon fill="#fb8072" stroke="#000000" points="829.3661,-258 728.6339,-258 728.6339,-222 829.3661,-222 829.3661,-258"/>
<text text-anchor="middle" x="779" y="-235.8" font-family="Times,serif" font-size="14.00" fill="#000000">ConfigService </text>
</g>
<!-- ConfigModule&#45;&gt;ConfigService  -->
<g id="edge13" class="edge">
<title>ConfigModule&#45;&gt;ConfigService </title>
<path fill="none" stroke="#000000" stroke-dasharray="5,2" d="M1121.1301,-190.1274C1121.1301,-200.7109 1121.1301,-212 1121.1301,-212 1121.1301,-212 779,-212 779,-212 779,-212 779,-212.9793 779,-212.9793"/>
<polygon fill="#000000" stroke="#000000" points="775.5001,-211.793 779,-221.793 782.5001,-211.7931 775.5001,-211.793"/>
</g>
<!-- JwtModule -->
<g id="node2" class="node">
<title>JwtModule</title>
<polygon fill="#8dd3c7" stroke="#000000" points="947.4916,-190 944.4916,-194 923.4916,-194 920.4916,-190 868.5084,-190 868.5084,-154 947.4916,-154 947.4916,-190"/>
<text text-anchor="middle" x="908" y="-167.8" font-family="Times,serif" font-size="14.00" fill="#000000">JwtModule</text>
</g>
<!-- JwtModule&#45;&gt;AppModule -->
<g id="edge2" class="edge">
<title>JwtModule&#45;&gt;AppModule</title>
<path fill="none" stroke="#000000" d="M947.5056,-172C954.9612,-172 960.4776,-172 960.4776,-172 960.4776,-172 960.4776,-279.9403 960.4776,-279.9403"/>
<polygon fill="#000000" stroke="#000000" points="956.9776,-279.9402 960.4776,-289.9403 963.9776,-279.9403 956.9776,-279.9402"/>
</g>
<!-- AuthModule -->
<g id="node6" class="node">
<title>AuthModule</title>
<polygon fill="#8dd3c7" stroke="#000000" points="375.5482,-258 372.5482,-262 351.5482,-262 348.5482,-258 288.4518,-258 288.4518,-222 375.5482,-222 375.5482,-258"/>
<text text-anchor="middle" x="332" y="-235.8" font-family="Times,serif" font-size="14.00" fill="#000000">AuthModule</text>
</g>
<!-- JwtModule&#45;&gt;AuthModule -->
<g id="edge5" class="edge">
<title>JwtModule&#45;&gt;AuthModule</title>
<path fill="none" stroke="#000000" d="M868.1882,-172C750.3102,-172 411.2454,-172 411.2454,-172 411.2454,-172 411.2454,-240 411.2454,-240 411.2454,-240 385.7948,-240 385.7948,-240"/>
<polygon fill="#000000" stroke="#000000" points="385.7948,-236.5001 375.7948,-240 385.7947,-243.5001 385.7948,-236.5001"/>
</g>
<!-- MailModule -->
<g id="node14" class="node">
<title>MailModule</title>
<polygon fill="#8dd3c7" stroke="#000000" points="1301.9902,-190 1298.9902,-194 1277.9902,-194 1274.9902,-190 1216.0098,-190 1216.0098,-154 1301.9902,-154 1301.9902,-190"/>
<text text-anchor="middle" x="1259" y="-167.8" font-family="Times,serif" font-size="14.00" fill="#000000">MailModule</text>
</g>
<!-- JwtModule&#45;&gt;MailModule -->
<g id="edge14" class="edge">
<title>JwtModule&#45;&gt;MailModule</title>
<path fill="none" stroke="#000000" d="M908,-190.0439C908,-202.5633 908,-217 908,-217 908,-217 1247.359,-217 1247.359,-217 1247.359,-217 1247.359,-200.0439 1247.359,-200.0439"/>
<polygon fill="#000000" stroke="#000000" points="1250.8591,-200.0439 1247.359,-190.0439 1243.8591,-200.044 1250.8591,-200.0439"/>
</g>
<!-- PrismaModule -->
<g id="node3" class="node">
<title>PrismaModule</title>
<polygon fill="#8dd3c7" stroke="#000000" points="1064.4344,-190 1061.4344,-194 1040.4344,-194 1037.4344,-190 965.5656,-190 965.5656,-154 1064.4344,-154 1064.4344,-190"/>
<text text-anchor="middle" x="1015" y="-167.8" font-family="Times,serif" font-size="14.00" fill="#000000">PrismaModule</text>
</g>
<!-- ZenGraphQLModule -->
<g id="node4" class="node">
<title>ZenGraphQLModule</title>
<polygon fill="#8dd3c7" stroke="#000000" points="1160.458,-258 1157.458,-262 1136.458,-262 1133.458,-258 1025.542,-258 1025.542,-222 1160.458,-222 1160.458,-258"/>
<text text-anchor="middle" x="1093" y="-235.8" font-family="Times,serif" font-size="14.00" fill="#000000">ZenGraphQLModule</text>
</g>
<!-- PrismaModule&#45;&gt;ZenGraphQLModule -->
<g id="edge21" class="edge">
<title>PrismaModule&#45;&gt;ZenGraphQLModule</title>
<path fill="none" stroke="#000000" d="M1044.8689,-190.2228C1044.8689,-190.2228 1044.8689,-211.7269 1044.8689,-211.7269"/>
<polygon fill="#000000" stroke="#000000" points="1041.3689,-211.7269 1044.8689,-221.7269 1048.3689,-211.727 1041.3689,-211.7269"/>
</g>
<!-- PrismaModule&#45;&gt;AppModule -->
<g id="edge3" class="edge">
<title>PrismaModule&#45;&gt;AppModule</title>
<path fill="none" stroke="#000000" d="M1013.5735,-190.0597C1013.5735,-190.0597 1013.5735,-279.8656 1013.5735,-279.8656"/>
<polygon fill="#000000" stroke="#000000" points="1010.0736,-279.8655 1013.5735,-289.8656 1017.0736,-279.8656 1010.0736,-279.8655"/>
</g>
<!-- PrismaModule&#45;&gt;AuthModule -->
<g id="edge6" class="edge">
<title>PrismaModule&#45;&gt;AuthModule</title>
<path fill="none" stroke="#000000" d="M977.7308,-190.1903C977.7308,-193.5376 977.7308,-196 977.7308,-196 977.7308,-196 346.5912,-196 346.5912,-196 346.5912,-196 346.5912,-211.8495 346.5912,-211.8495"/>
<polygon fill="#000000" stroke="#000000" points="343.0913,-211.8494 346.5912,-221.8495 350.0913,-211.8495 343.0913,-211.8494"/>
</g>
<!-- PrismaService  -->
<g id="node17" class="node">
<title>PrismaService </title>
<polygon fill="#fb8072" stroke="#000000" points="689.3619,-258 588.6381,-258 588.6381,-222 689.3619,-222 689.3619,-258"/>
<text text-anchor="middle" x="639" y="-235.8" font-family="Times,serif" font-size="14.00" fill="#000000">PrismaService </text>
</g>
<!-- PrismaModule&#45;&gt;PrismaService  -->
<g id="edge17" class="edge">
<title>PrismaModule&#45;&gt;PrismaService </title>
<path fill="none" stroke="#000000" stroke-dasharray="5,2" d="M1001.6259,-190.1944C1001.6259,-198.2782 1001.6259,-206 1001.6259,-206 1001.6259,-206 639,-206 639,-206 639,-206 639,-211.8056 639,-211.8056"/>
<polygon fill="#000000" stroke="#000000" points="635.5001,-211.8055 639,-221.8056 642.5001,-211.8056 635.5001,-211.8055"/>
</g>
<!-- ZenGraphQLModule&#45;&gt;AppModule -->
<g id="edge4" class="edge">
<title>ZenGraphQLModule&#45;&gt;AppModule</title>
<path fill="none" stroke="#000000" d="M1034.3925,-258.2228C1034.3925,-258.2228 1034.3925,-279.7269 1034.3925,-279.7269"/>
<polygon fill="#000000" stroke="#000000" points="1030.8926,-279.7269 1034.3925,-289.7269 1037.8926,-279.727 1030.8926,-279.7269"/>
</g>
<!-- AuthModule&#45;&gt;ZenGraphQLModule -->
<g id="edge19" class="edge">
<title>AuthModule&#45;&gt;ZenGraphQLModule</title>
<path fill="none" stroke="#000000" d="M350.9365,-258.1944C350.9365,-266.2782 350.9365,-274 350.9365,-274 350.9365,-274 1029.9567,-274 1029.9567,-274 1029.9567,-274 1029.9567,-268.1944 1029.9567,-268.1944"/>
<polygon fill="#000000" stroke="#000000" points="1033.4568,-268.1944 1029.9567,-258.1944 1026.4568,-268.1945 1033.4568,-268.1944"/>
</g>
<!-- AuthService  -->
<g id="node7" class="node">
<title>AuthService </title>
<polygon fill="#fb8072" stroke="#000000" points="390.9761,-326 301.0239,-326 301.0239,-290 390.9761,-290 390.9761,-326"/>
<text text-anchor="middle" x="346" y="-303.8" font-family="Times,serif" font-size="14.00" fill="#000000">AuthService </text>
</g>
<!-- AuthModule&#45;&gt;AuthService  -->
<g id="edge7" class="edge">
<title>AuthModule&#45;&gt;AuthService </title>
<path fill="none" stroke="#000000" stroke-dasharray="5,2" d="M326.0996,-258.2228C326.0996,-258.2228 326.0996,-279.7269 326.0996,-279.7269"/>
<polygon fill="#000000" stroke="#000000" points="322.5997,-279.7269 326.0996,-289.7269 329.5997,-279.727 322.5997,-279.7269"/>
</g>
<!-- GqlGuard  -->
<g id="node8" class="node">
<title>GqlGuard </title>
<polygon fill="#fb8072" stroke="#000000" points="283.9805,-326 208.0195,-326 208.0195,-290 283.9805,-290 283.9805,-326"/>
<text text-anchor="middle" x="246" y="-303.8" font-family="Times,serif" font-size="14.00" fill="#000000">GqlGuard </text>
</g>
<!-- AuthModule&#45;&gt;GqlGuard  -->
<g id="edge8" class="edge">
<title>AuthModule&#45;&gt;GqlGuard </title>
<path fill="none" stroke="#000000" stroke-dasharray="5,2" d="M288.0823,-251C282.239,-251 278.2178,-251 278.2178,-251 278.2178,-251 278.2178,-279.9648 278.2178,-279.9648"/>
<polygon fill="#000000" stroke="#000000" points="274.7179,-279.9648 278.2178,-289.9648 281.7179,-279.9649 274.7179,-279.9648"/>
</g>
<!-- JwtModule  -->
<g id="node9" class="node">
<title>JwtModule </title>
<polygon fill="#fb8072" stroke="#000000" points="190.4931,-326 107.5069,-326 107.5069,-290 190.4931,-290 190.4931,-326"/>
<text text-anchor="middle" x="149" y="-303.8" font-family="Times,serif" font-size="14.00" fill="#000000">JwtModule </text>
</g>
<!-- AuthModule&#45;&gt;JwtModule  -->
<g id="edge9" class="edge">
<title>AuthModule&#45;&gt;JwtModule </title>
<path fill="none" stroke="#000000" stroke-dasharray="5,2" d="M288.0759,-244C240.9531,-244 172.798,-244 172.798,-244 172.798,-244 172.798,-279.8314 172.798,-279.8314"/>
<polygon fill="#000000" stroke="#000000" points="169.2981,-279.8313 172.798,-289.8314 176.2981,-279.8314 169.2981,-279.8313"/>
</g>
<!-- AuthService -->
<g id="node10" class="node">
<title>AuthService</title>
<ellipse fill="#fdb462" stroke="#000000" cx="332" cy="-172" rx="59.1083" ry="18"/>
<text text-anchor="middle" x="332" y="-167.8" font-family="Times,serif" font-size="14.00" fill="#000000">AuthService</text>
</g>
<!-- AuthService&#45;&gt;AuthModule -->
<g id="edge10" class="edge">
<title>AuthService&#45;&gt;AuthModule</title>
<path fill="none" stroke="#000000" d="M317.4088,-189.5117C317.4088,-189.5117 317.4088,-211.8359 317.4088,-211.8359"/>
<polygon fill="#000000" stroke="#000000" points="313.9089,-211.8358 317.4088,-221.8359 320.9089,-211.8359 313.9089,-211.8358"/>
</g>
<!-- GqlGuard -->
<g id="node11" class="node">
<title>GqlGuard</title>
<ellipse fill="#fdb462" stroke="#000000" cx="205" cy="-172" rx="49.8001" ry="18"/>
<text text-anchor="middle" x="205" y="-167.8" font-family="Times,serif" font-size="14.00" fill="#000000">GqlGuard</text>
</g>
<!-- GqlGuard&#45;&gt;AuthModule -->
<g id="edge11" class="edge">
<title>GqlGuard&#45;&gt;AuthModule</title>
<path fill="none" stroke="#000000" d="M231.4552,-187.2388C231.4552,-204.4232 231.4552,-230 231.4552,-230 231.4552,-230 278.1921,-230 278.1921,-230"/>
<polygon fill="#000000" stroke="#000000" points="278.1921,-233.5001 288.1921,-230 278.192,-226.5001 278.1921,-233.5001"/>
</g>
<!-- JwtStrategy -->
<g id="node12" class="node">
<title>JwtStrategy</title>
<ellipse fill="#fdb462" stroke="#000000" cx="81" cy="-172" rx="56.7561" ry="18"/>
<text text-anchor="middle" x="81" y="-167.8" font-family="Times,serif" font-size="14.00" fill="#000000">JwtStrategy</text>
</g>
<!-- JwtStrategy&#45;&gt;AuthModule -->
<g id="edge12" class="edge">
<title>JwtStrategy&#45;&gt;AuthModule</title>
<path fill="none" stroke="#000000" d="M122.6911,-184.226C122.6911,-203.0549 122.6911,-237 122.6911,-237 122.6911,-237 278.3768,-237 278.3768,-237"/>
<polygon fill="#000000" stroke="#000000" points="278.3768,-240.5001 288.3768,-237 278.3767,-233.5001 278.3768,-240.5001"/>
</g>
<!-- MailModule&#45;&gt;ZenGraphQLModule -->
<g id="edge20" class="edge">
<title>MailModule&#45;&gt;ZenGraphQLModule</title>
<path fill="none" stroke="#000000" d="M1215.7232,-172C1205.8056,-172 1198.1119,-172 1198.1119,-172 1198.1119,-172 1198.1119,-240 1198.1119,-240 1198.1119,-240 1170.461,-240 1170.461,-240"/>
<polygon fill="#000000" stroke="#000000" points="1170.461,-236.5001 1160.461,-240 1170.4609,-243.5001 1170.461,-236.5001"/>
</g>
<!-- MailService  -->
<g id="node15" class="node">
<title>MailService </title>
<polygon fill="#fb8072" stroke="#000000" points="1307.918,-258 1220.082,-258 1220.082,-222 1307.918,-222 1307.918,-258"/>
<text text-anchor="middle" x="1264" y="-235.8" font-family="Times,serif" font-size="14.00" fill="#000000">MailService </text>
</g>
<!-- MailModule&#45;&gt;MailService  -->
<g id="edge15" class="edge">
<title>MailModule&#45;&gt;MailService </title>
<path fill="none" stroke="#000000" stroke-dasharray="5,2" d="M1274.6771,-190.2228C1274.6771,-190.2228 1274.6771,-211.7269 1274.6771,-211.7269"/>
<polygon fill="#000000" stroke="#000000" points="1271.1772,-211.7269 1274.6771,-221.7269 1278.1772,-211.727 1271.1772,-211.7269"/>
</g>
<!-- MailService -->
<g id="node16" class="node">
<title>MailService</title>
<ellipse fill="#fdb462" stroke="#000000" cx="1278" cy="-104" rx="58.4609" ry="18"/>
<text text-anchor="middle" x="1278" y="-99.8" font-family="Times,serif" font-size="14.00" fill="#000000">MailService</text>
</g>
<!-- MailService&#45;&gt;MailModule -->
<g id="edge16" class="edge">
<title>MailService&#45;&gt;MailModule</title>
<path fill="none" stroke="#000000" d="M1260.8826,-121.5117C1260.8826,-121.5117 1260.8826,-143.8359 1260.8826,-143.8359"/>
<polygon fill="#000000" stroke="#000000" points="1257.3827,-143.8358 1260.8826,-153.8359 1264.3827,-143.8359 1257.3827,-143.8358"/>
</g>
<!-- PrismaService -->
<g id="node18" class="node">
<title>PrismaService</title>
<ellipse fill="#fdb462" stroke="#000000" cx="498" cy="-240" rx="66.6267" ry="18"/>
<text text-anchor="middle" x="498" y="-235.8" font-family="Times,serif" font-size="14.00" fill="#000000">PrismaService</text>
</g>
<!-- PrismaService&#45;&gt;PrismaModule -->
<g id="edge18" class="edge">
<title>PrismaService&#45;&gt;PrismaModule</title>
<path fill="none" stroke="#000000" d="M498,-221.8701C498,-211.6855 498,-201 498,-201 498,-201 989.6784,-201 989.6784,-201 989.6784,-201 989.6784,-199.9201 989.6784,-199.9201"/>
<polygon fill="#000000" stroke="#000000" points="993.1785,-200.2014 989.6784,-190.2015 986.1785,-200.2015 993.1785,-200.2014"/>
</g>
</g>
</svg>
