<?xml version="1.0" encoding="UTF-8" standalone="no"?>
<!DOCTYPE svg PUBLIC "-//W3C//DTD SVG 1.1//EN"
 "http://www.w3.org/Graphics/SVG/1.1/DTD/svg11.dtd">
<!-- Generated by graphviz version 2.44.1 (20200629.0846)
 -->
<!-- Title: dependencies Pages: 1 -->
<svg width="8938pt" height="428pt"
 viewBox="0.00 0.00 8938.00 428.00" xmlns="http://www.w3.org/2000/svg" xmlns:xlink="http://www.w3.org/1999/xlink">
<g id="graph0" class="graph" transform="scale(1 1) rotate(0) translate(4 424)">
<title>dependencies</title>
<polygon fill="white" stroke="transparent" points="-4,4 -4,-424 8934,-424 8934,4 -4,4"/>
<text text-anchor="start" x="4444.01" y="-42.4" font-family="sans-serif" font-weight="bold" font-size="14.00">Legend</text>
<polygon fill="#ffffb3" stroke="transparent" points="4231,-10 4231,-30 4251,-30 4251,-10 4231,-10"/>
<text text-anchor="start" x="4254.63" y="-15.4" font-family="sans-serif" font-size="14.00"> &#160;Declarations</text>
<polygon fill="#8dd3c7" stroke="transparent" points="4344,-10 4344,-30 4364,-30 4364,-10 4344,-10"/>
<text text-anchor="start" x="4367.73" y="-15.4" font-family="sans-serif" font-size="14.00"> &#160;Module</text>
<polygon fill="#80b1d3" stroke="transparent" points="4430,-10 4430,-30 4450,-30 4450,-10 4430,-10"/>
<text text-anchor="start" x="4453.78" y="-15.4" font-family="sans-serif" font-size="14.00"> &#160;Bootstrap</text>
<polygon fill="#fdb462" stroke="transparent" points="4527,-10 4527,-30 4547,-30 4547,-10 4527,-10"/>
<text text-anchor="start" x="4550.67" y="-15.4" font-family="sans-serif" font-size="14.00"> &#160;Providers</text>
<polygon fill="#fb8072" stroke="transparent" points="4623,-10 4623,-30 4643,-30 4643,-10 4623,-10"/>
<text text-anchor="start" x="4646.73" y="-15.4" font-family="sans-serif" font-size="14.00"> &#160;Exports</text>
<g id="clust1" class="cluster">
<title>cluster_AppModule</title>
<polygon fill="none" stroke="black" stroke-dasharray="1,5" points="4412,-146 4412,-412 7404,-412 7404,-146 4412,-146"/>
</g>
<g id="clust2" class="cluster">
<title>cluster_AppModule_declarations</title>
<polygon fill="none" stroke="black" points="7274,-222 7274,-274 7396,-274 7396,-222 7274,-222"/>
</g>
<g id="clust4" class="cluster">
<title>cluster_AppModule_imports</title>
<polygon fill="none" stroke="black" points="6159,-154 6159,-274 7266,-274 7266,-154 6159,-154"/>
</g>
<g id="clust6" class="cluster">
<title>cluster_AppModule_bootstrap</title>
<polygon fill="none" stroke="black" points="6500,-352 6500,-404 6624,-404 6624,-352 6500,-352"/>
</g>
<g id="clust7" class="cluster">
<title>cluster_AppModule_providers</title>
<polygon fill="none" stroke="black" points="4420,-222 4420,-274 6151,-274 6151,-222 4420,-222"/>
</g>
<g id="clust8" class="cluster">
<title>cluster_AuthModule</title>
<polygon fill="none" stroke="black" stroke-dasharray="1,5" points="1298,-70 1298,-214 4404,-214 4404,-70 1298,-70"/>
</g>
<g id="clust9" class="cluster">
<title>cluster_AuthModule_declarations</title>
<polygon fill="none" stroke="black" points="3445,-78 3445,-130 4396,-130 4396,-78 3445,-78"/>
</g>
<g id="clust16" class="cluster">
<title>cluster_AuthModule_imports</title>
<polygon fill="none" stroke="black" points="1306,-78 1306,-206 2455,-206 2455,-78 1306,-78"/>
</g>
<g id="clust17" class="cluster">
<title>cluster_AuthModule_exports</title>
<polygon fill="none" stroke="black" points="2463,-78 2463,-130 3437,-130 3437,-78 2463,-78"/>
</g>
<g id="clust20" class="cluster">
<title>cluster_GraphQLModule</title>
<polygon fill="none" stroke="black" stroke-dasharray="1,5" points="8070,-70 8070,-206 8922,-206 8922,-70 8070,-70"/>
</g>
<g id="clust25" class="cluster">
<title>cluster_GraphQLModule_providers</title>
<polygon fill="none" stroke="black" points="8078,-78 8078,-130 8914,-130 8914,-78 8078,-78"/>
</g>
<g id="clust26" class="cluster">
<title>cluster_MainModule</title>
<polygon fill="none" stroke="black" stroke-dasharray="1,5" points="7412,-146 7412,-214 8062,-214 8062,-146 7412,-146"/>
</g>
<g id="clust27" class="cluster">
<title>cluster_MainModule_declarations</title>
<polygon fill="none" stroke="black" points="7724,-154 7724,-206 8054,-206 8054,-154 7724,-154"/>
</g>
<g id="clust30" class="cluster">
<title>cluster_MainModule_imports</title>
<polygon fill="none" stroke="black" points="7420,-154 7420,-206 7716,-206 7716,-154 7420,-154"/>
</g>
<g id="clust34" class="cluster">
<title>cluster_ZenComponentsModule</title>
<polygon fill="none" stroke="black" stroke-dasharray="1,5" points="8,-70 8,-138 1290,-138 1290,-70 8,-70"/>
</g>
<g id="clust35" class="cluster">
<title>cluster_ZenComponentsModule_declarations</title>
<polygon fill="none" stroke="black" points="948,-78 948,-130 1282,-130 1282,-78 948,-78"/>
</g>
<g id="clust38" class="cluster">
<title>cluster_ZenComponentsModule_imports</title>
<polygon fill="none" stroke="black" points="612,-78 612,-130 940,-130 940,-78 612,-78"/>
</g>
<g id="clust39" class="cluster">
<title>cluster_ZenComponentsModule_exports</title>
<polygon fill="none" stroke="black" points="262,-78 262,-130 604,-130 604,-78 262,-78"/>
</g>
<g id="clust41" class="cluster">
<title>cluster_ZenComponentsModule_providers</title>
<polygon fill="none" stroke="black" points="16,-78 16,-130 254,-130 254,-78 16,-78"/>
</g>
<g id="clust42" class="cluster">
<title>cluster_ZenSuperModule</title>
<polygon fill="none" stroke="black" stroke-dasharray="1,5" points="976,-146 976,-274 1290,-274 1290,-146 976,-146"/>
</g>
<g id="clust43" class="cluster">
<title>cluster_ZenSuperModule_declarations</title>
<polygon fill="none" stroke="black" points="1104,-154 1104,-206 1282,-206 1282,-154 1104,-154"/>
</g>
<g id="clust45" class="cluster">
<title>cluster_ZenSuperModule_imports</title>
<polygon fill="none" stroke="black" points="984,-154 984,-206 1096,-206 1096,-154 984,-154"/>
</g>
<!-- AppComponent -->
<g id="node1" class="node">
<title>AppComponent</title>
<polygon fill="#ffffb3" stroke="black" points="7387.94,-266 7282.06,-266 7282.06,-230 7387.94,-230 7387.94,-266"/>
<text text-anchor="middle" x="7335" y="-243.8" font-family="Times,serif" font-size="14.00">AppComponent</text>
</g>
<!-- AppModule -->
<g id="node2" class="node">
<title>AppModule</title>
<polygon fill="#8dd3c7" stroke="black" points="6603.66,-331 6600.66,-335 6579.66,-335 6576.66,-331 6520.34,-331 6520.34,-295 6603.66,-295 6603.66,-331"/>
<text text-anchor="middle" x="6562" y="-308.8" font-family="Times,serif" font-size="14.00">AppModule</text>
</g>
<!-- AppComponent&#45;&gt;AppModule -->
<g id="edge1" class="edge">
<title>AppComponent&#45;&gt;AppModule</title>
<path fill="none" stroke="black" d="M7335,-266.25C7335,-289.02 7335,-325 7335,-325 7335,-325 6613.83,-325 6613.83,-325"/>
<polygon fill="black" stroke="black" points="6613.83,-321.5 6603.83,-325 6613.83,-328.5 6613.83,-321.5"/>
</g>
<!-- AppComponent  -->
<g id="node11" class="node">
<title>AppComponent </title>
<polygon fill="#80b1d3" stroke="black" points="6616.44,-396 6507.56,-396 6507.56,-360 6616.44,-360 6616.44,-396"/>
<text text-anchor="middle" x="6562" y="-373.8" font-family="Times,serif" font-size="14.00">AppComponent </text>
</g>
<!-- AppModule&#45;&gt;AppComponent  -->
<g id="edge10" class="edge">
<title>AppModule&#45;&gt;AppComponent </title>
<path fill="none" stroke="black" stroke-dasharray="1,5" d="M6562,-331.11C6562,-331.11 6562,-349.99 6562,-349.99"/>
<polygon fill="black" stroke="black" points="6558.5,-349.99 6562,-359.99 6565.5,-349.99 6558.5,-349.99"/>
</g>
<!-- BrowserModule -->
<g id="node3" class="node">
<title>BrowserModule</title>
<polygon fill="#8dd3c7" stroke="black" points="6961.47,-198 6958.47,-202 6937.47,-202 6934.47,-198 6854.53,-198 6854.53,-162 6961.47,-162 6961.47,-198"/>
<text text-anchor="middle" x="6908" y="-175.8" font-family="Times,serif" font-size="14.00">BrowserModule</text>
</g>
<!-- BrowserModule&#45;&gt;AppModule -->
<g id="edge2" class="edge">
<title>BrowserModule&#45;&gt;AppModule</title>
<path fill="none" stroke="black" d="M6908,-198.2C6908,-233.31 6908,-307 6908,-307 6908,-307 6613.74,-307 6613.74,-307"/>
<polygon fill="black" stroke="black" points="6613.74,-303.5 6603.74,-307 6613.74,-310.5 6613.74,-303.5"/>
</g>
<!-- BrowserAnimationsModule -->
<g id="node4" class="node">
<title>BrowserAnimationsModule</title>
<polygon fill="#8dd3c7" stroke="black" points="7152.3,-198 7149.3,-202 7128.3,-202 7125.3,-198 6979.7,-198 6979.7,-162 7152.3,-162 7152.3,-198"/>
<text text-anchor="middle" x="7066" y="-175.8" font-family="Times,serif" font-size="14.00">BrowserAnimationsModule</text>
</g>
<!-- BrowserAnimationsModule&#45;&gt;AppModule -->
<g id="edge3" class="edge">
<title>BrowserAnimationsModule&#45;&gt;AppModule</title>
<path fill="none" stroke="black" d="M7066,-198.21C7066,-234.64 7066,-313 7066,-313 7066,-313 6613.67,-313 6613.67,-313"/>
<polygon fill="black" stroke="black" points="6613.67,-309.5 6603.67,-313 6613.67,-316.5 6613.67,-309.5"/>
</g>
<!-- HttpClientModule -->
<g id="node5" class="node">
<title>HttpClientModule</title>
<polygon fill="#8dd3c7" stroke="black" points="6285.16,-198 6282.16,-202 6261.16,-202 6258.16,-198 6166.84,-198 6166.84,-162 6285.16,-162 6285.16,-198"/>
<text text-anchor="middle" x="6226" y="-175.8" font-family="Times,serif" font-size="14.00">HttpClientModule</text>
</g>
<!-- HttpClientModule&#45;&gt;AppModule -->
<g id="edge4" class="edge">
<title>HttpClientModule&#45;&gt;AppModule</title>
<path fill="none" stroke="black" d="M6226,-198.2C6226,-233.31 6226,-307 6226,-307 6226,-307 6510.12,-307 6510.12,-307"/>
<polygon fill="black" stroke="black" points="6510.12,-310.5 6520.12,-307 6510.12,-303.5 6510.12,-310.5"/>
</g>
<!-- ZenSuperModule -->
<g id="node51" class="node">
<title>ZenSuperModule</title>
<polygon fill="#8dd3c7" stroke="black" points="1281.97,-266 1278.97,-270 1257.97,-270 1254.97,-266 1168.03,-266 1168.03,-230 1281.97,-230 1281.97,-266"/>
<text text-anchor="middle" x="1225" y="-243.8" font-family="Times,serif" font-size="14.00">ZenSuperModule</text>
</g>
<!-- HttpClientModule&#45;&gt;ZenSuperModule -->
<g id="edge55" class="edge">
<title>HttpClientModule&#45;&gt;ZenSuperModule</title>
<path fill="none" stroke="black" d="M6166.8,-174C5854.02,-174 4408,-174 4408,-174 4408,-174 4408,-257 4408,-257 4408,-257 1292.28,-257 1292.28,-257"/>
<polygon fill="black" stroke="black" points="1292.28,-253.5 1282.28,-257 1292.28,-260.5 1292.28,-253.5"/>
</g>
<!-- RouterModule.forRoot(args) -->
<g id="node6" class="node">
<title>RouterModule.forRoot(args)</title>
<polygon fill="#8dd3c7" stroke="black" points="6480.84,-198 6477.84,-202 6456.84,-202 6453.84,-198 6303.16,-198 6303.16,-162 6480.84,-162 6480.84,-198"/>
<text text-anchor="middle" x="6392" y="-175.8" font-family="Times,serif" font-size="14.00">RouterModule.forRoot(args)</text>
</g>
<!-- RouterModule.forRoot(args)&#45;&gt;AppModule -->
<g id="edge5" class="edge">
<title>RouterModule.forRoot(args)&#45;&gt;AppModule</title>
<path fill="none" stroke="black" d="M6392,-198.11C6392,-231.87 6392,-301 6392,-301 6392,-301 6509.98,-301 6509.98,-301"/>
<polygon fill="black" stroke="black" points="6509.98,-304.5 6519.98,-301 6509.98,-297.5 6509.98,-304.5"/>
</g>
<!-- MatToolbarModule -->
<g id="node7" class="node">
<title>MatToolbarModule</title>
<polygon fill="#8dd3c7" stroke="black" points="6625.42,-198 6622.42,-202 6601.42,-202 6598.42,-198 6498.58,-198 6498.58,-162 6625.42,-162 6625.42,-198"/>
<text text-anchor="middle" x="6562" y="-175.8" font-family="Times,serif" font-size="14.00">MatToolbarModule</text>
</g>
<!-- MatToolbarModule&#45;&gt;AppModule -->
<g id="edge6" class="edge">
<title>MatToolbarModule&#45;&gt;AppModule</title>
<path fill="none" stroke="black" d="M6562,-198.21C6562,-198.21 6562,-284.58 6562,-284.58"/>
<polygon fill="black" stroke="black" points="6558.5,-284.58 6562,-294.58 6565.5,-284.58 6558.5,-284.58"/>
</g>
<!-- AuthModule -->
<g id="node8" class="node">
<title>AuthModule</title>
<polygon fill="#8dd3c7" stroke="black" points="7257.55,-198 7254.55,-202 7233.55,-202 7230.55,-198 7170.45,-198 7170.45,-162 7257.55,-162 7257.55,-198"/>
<text text-anchor="middle" x="7214" y="-175.8" font-family="Times,serif" font-size="14.00">AuthModule</text>
</g>
<!-- AuthModule&#45;&gt;AppModule -->
<g id="edge7" class="edge">
<title>AuthModule&#45;&gt;AppModule</title>
<path fill="none" stroke="black" d="M7170.15,-180C7164.32,-180 7160.3,-180 7160.3,-180 7160.3,-180 7160.3,-319 7160.3,-319 7160.3,-319 6614.07,-319 6614.07,-319"/>
<polygon fill="black" stroke="black" points="6614.07,-315.5 6604.07,-319 6614.07,-322.5 6614.07,-315.5"/>
</g>
<!-- MainModule -->
<g id="node9" class="node">
<title>MainModule</title>
<polygon fill="#8dd3c7" stroke="black" points="7257.6,-266 7254.6,-270 7233.6,-270 7230.6,-266 7168.4,-266 7168.4,-230 7257.6,-230 7257.6,-266"/>
<text text-anchor="middle" x="7213" y="-243.8" font-family="Times,serif" font-size="14.00">MainModule</text>
</g>
<!-- AuthModule&#45;&gt;MainModule -->
<g id="edge42" class="edge">
<title>AuthModule&#45;&gt;MainModule</title>
<path fill="none" stroke="black" d="M7207.65,-198.22C7207.65,-198.22 7207.65,-219.73 7207.65,-219.73"/>
<polygon fill="black" stroke="black" points="7204.15,-219.73 7207.65,-229.73 7211.15,-219.73 7204.15,-219.73"/>
</g>
<!-- IsLoggedInDirective  -->
<g id="node31" class="node">
<title>IsLoggedInDirective </title>
<polygon fill="#fb8072" stroke="black" points="3429.12,-122 3292.88,-122 3292.88,-86 3429.12,-86 3429.12,-122"/>
<text text-anchor="middle" x="3361" y="-99.8" font-family="Times,serif" font-size="14.00">IsLoggedInDirective </text>
</g>
<!-- AuthModule&#45;&gt;IsLoggedInDirective  -->
<g id="edge30" class="edge">
<title>AuthModule&#45;&gt;IsLoggedInDirective </title>
<path fill="none" stroke="black" stroke-dasharray="5,2" d="M7249.44,-161.85C7249.44,-148.26 7249.44,-132 7249.44,-132 7249.44,-132 3361,-132 3361,-132 3361,-132 3361,-131.02 3361,-131.02"/>
<polygon fill="black" stroke="black" points="3364.5,-132.21 3361,-122.21 3357.5,-132.21 3364.5,-132.21"/>
</g>
<!-- NotRolesDirective  -->
<g id="node32" class="node">
<title>NotRolesDirective </title>
<polygon fill="#fb8072" stroke="black" points="3275.47,-122 3150.53,-122 3150.53,-86 3275.47,-86 3275.47,-122"/>
<text text-anchor="middle" x="3213" y="-99.8" font-family="Times,serif" font-size="14.00">NotRolesDirective </text>
</g>
<!-- AuthModule&#45;&gt;NotRolesDirective  -->
<g id="edge31" class="edge">
<title>AuthModule&#45;&gt;NotRolesDirective </title>
<path fill="none" stroke="black" stroke-dasharray="5,2" d="M7245.27,-161.82C7245.27,-148.96 7245.27,-134 7245.27,-134 7245.27,-134 3213,-134 3213,-134 3213,-134 3213,-132.14 3213,-132.14"/>
<polygon fill="black" stroke="black" points="3216.5,-132.14 3213,-122.14 3209.5,-132.14 3216.5,-132.14"/>
</g>
<!-- RolesDirective  -->
<g id="node33" class="node">
<title>RolesDirective </title>
<polygon fill="#fb8072" stroke="black" points="3132.97,-122 3029.03,-122 3029.03,-86 3132.97,-86 3132.97,-122"/>
<text text-anchor="middle" x="3081" y="-99.8" font-family="Times,serif" font-size="14.00">RolesDirective </text>
</g>
<!-- AuthModule&#45;&gt;RolesDirective  -->
<g id="edge32" class="edge">
<title>AuthModule&#45;&gt;RolesDirective </title>
<path fill="none" stroke="black" stroke-dasharray="5,2" d="M7241.1,-161.96C7241.1,-149.44 7241.1,-135 7241.1,-135 7241.1,-135 3081,-135 3081,-135 3081,-135 3081,-132.03 3081,-132.03"/>
<polygon fill="black" stroke="black" points="3084.5,-132.03 3081,-122.03 3077.5,-132.03 3084.5,-132.03"/>
</g>
<!-- ZenLoginFormComponent  -->
<g id="node34" class="node">
<title>ZenLoginFormComponent </title>
<polygon fill="#fb8072" stroke="black" points="3011.38,-122 2840.62,-122 2840.62,-86 3011.38,-86 3011.38,-122"/>
<text text-anchor="middle" x="2926" y="-99.8" font-family="Times,serif" font-size="14.00">ZenLoginFormComponent </text>
</g>
<!-- AuthModule&#45;&gt;ZenLoginFormComponent  -->
<g id="edge33" class="edge">
<title>AuthModule&#45;&gt;ZenLoginFormComponent </title>
<path fill="none" stroke="black" stroke-dasharray="5,2" d="M7236.93,-161.51C7236.93,-149.86 7236.93,-137 7236.93,-137 7236.93,-137 2926,-137 2926,-137 2926,-137 2926,-132.04 2926,-132.04"/>
<polygon fill="black" stroke="black" points="2929.5,-132.04 2926,-122.04 2922.5,-132.04 2929.5,-132.04"/>
</g>
<!-- ZenLoginPageComponent  -->
<g id="node35" class="node">
<title>ZenLoginPageComponent </title>
<polygon fill="#fb8072" stroke="black" points="2822.75,-122 2655.25,-122 2655.25,-86 2822.75,-86 2822.75,-122"/>
<text text-anchor="middle" x="2739" y="-99.8" font-family="Times,serif" font-size="14.00">ZenLoginPageComponent </text>
</g>
<!-- AuthModule&#45;&gt;ZenLoginPageComponent  -->
<g id="edge34" class="edge">
<title>AuthModule&#45;&gt;ZenLoginPageComponent </title>
<path fill="none" stroke="black" stroke-dasharray="5,2" d="M7232.76,-161.94C7232.76,-150.56 7232.76,-138 7232.76,-138 7232.76,-138 2739,-138 2739,-138 2739,-138 2739,-132.19 2739,-132.19"/>
<polygon fill="black" stroke="black" points="2742.5,-132.19 2739,-122.19 2735.5,-132.19 2742.5,-132.19"/>
</g>
<!-- ZenLoginLinkComponent  -->
<g id="node36" class="node">
<title>ZenLoginLinkComponent </title>
<polygon fill="#fb8072" stroke="black" points="2637.49,-122 2470.51,-122 2470.51,-86 2637.49,-86 2637.49,-122"/>
<text text-anchor="middle" x="2554" y="-99.8" font-family="Times,serif" font-size="14.00">ZenLoginLinkComponent </text>
</g>
<!-- AuthModule&#45;&gt;ZenLoginLinkComponent  -->
<g id="edge35" class="edge">
<title>AuthModule&#45;&gt;ZenLoginLinkComponent </title>
<path fill="none" stroke="black" stroke-dasharray="5,2" d="M7228.59,-161.87C7228.59,-151.29 7228.59,-140 7228.59,-140 7228.59,-140 2554,-140 2554,-140 2554,-140 2554,-132.42 2554,-132.42"/>
<polygon fill="black" stroke="black" points="2557.5,-132.42 2554,-122.42 2550.5,-132.42 2557.5,-132.42"/>
</g>
<!-- MainModule&#45;&gt;AppModule -->
<g id="edge8" class="edge">
<title>MainModule&#45;&gt;AppModule</title>
<path fill="none" stroke="black" d="M7168.44,-254C7024.76,-254 6582.91,-254 6582.91,-254 6582.91,-254 6582.91,-284.98 6582.91,-284.98"/>
<polygon fill="black" stroke="black" points="6579.41,-284.98 6582.91,-294.98 6586.41,-284.98 6579.41,-284.98"/>
</g>
<!-- GraphQLModule.forRoot(args) -->
<g id="node10" class="node">
<title>GraphQLModule.forRoot(args)</title>
<polygon fill="#8dd3c7" stroke="black" points="6836.38,-198 6833.38,-202 6812.38,-202 6809.38,-198 6643.62,-198 6643.62,-162 6836.38,-162 6836.38,-198"/>
<text text-anchor="middle" x="6740" y="-175.8" font-family="Times,serif" font-size="14.00">GraphQLModule.forRoot(args)</text>
</g>
<!-- GraphQLModule.forRoot(args)&#45;&gt;AppModule -->
<g id="edge9" class="edge">
<title>GraphQLModule.forRoot(args)&#45;&gt;AppModule</title>
<path fill="none" stroke="black" d="M6740,-198.11C6740,-231.87 6740,-301 6740,-301 6740,-301 6613.73,-301 6613.73,-301"/>
<polygon fill="black" stroke="black" points="6613.73,-297.5 6603.73,-301 6613.73,-304.5 6613.73,-297.5"/>
</g>
<!-- Location -->
<g id="node12" class="node">
<title>Location</title>
<ellipse fill="#fdb462" stroke="black" cx="5004" cy="-248" rx="45.22" ry="18"/>
<text text-anchor="middle" x="5004" y="-243.8" font-family="Times,serif" font-size="14.00">Location</text>
</g>
<!-- Location&#45;&gt;AppModule -->
<g id="edge11" class="edge">
<title>Location&#45;&gt;AppModule</title>
<path fill="none" stroke="black" d="M5004,-266.28C5004,-287.32 5004,-319 5004,-319 5004,-319 6510.33,-319 6510.33,-319"/>
<polygon fill="black" stroke="black" points="6510.33,-322.5 6520.33,-319 6510.33,-315.5 6510.33,-322.5"/>
</g>
<!-- { provide: LocationStrategy, useClass: HashLocationStrategy } -->
<g id="node13" class="node">
<title>{ provide: LocationStrategy, useClass: HashLocationStrategy }</title>
<ellipse fill="#fdb462" stroke="black" cx="4684" cy="-248" rx="256.11" ry="18"/>
<text text-anchor="middle" x="4684" y="-243.8" font-family="Times,serif" font-size="14.00">{ provide: LocationStrategy, useClass: HashLocationStrategy }</text>
</g>
<!-- { provide: LocationStrategy, useClass: HashLocationStrategy }&#45;&gt;AppModule -->
<g id="edge12" class="edge">
<title>{ provide: LocationStrategy, useClass: HashLocationStrategy }&#45;&gt;AppModule</title>
<path fill="none" stroke="black" d="M4684,-266.25C4684,-289.02 4684,-325 4684,-325 4684,-325 6510.14,-325 6510.14,-325"/>
<polygon fill="black" stroke="black" points="6510.14,-328.5 6520.14,-325 6510.14,-321.5 6510.14,-328.5"/>
</g>
<!-- { provide: HTTP_INTERCEPTORS, useClass: HttpRequestInterceptor, multi: &#160;} -->
<g id="node14" class="node">
<title>{ provide: HTTP_INTERCEPTORS, useClass: HttpRequestInterceptor, multi: &#160;}</title>
<ellipse fill="#fdb462" stroke="black" cx="5819" cy="-248" rx="324.36" ry="18"/>
<text text-anchor="middle" x="5819" y="-243.8" font-family="Times,serif" font-size="14.00">{ provide: HTTP_INTERCEPTORS, useClass: HttpRequestInterceptor, multi: &#160;}</text>
</g>
<!-- { provide: HTTP_INTERCEPTORS, useClass: HttpRequestInterceptor, multi: &#160;}&#45;&gt;AppModule -->
<g id="edge13" class="edge">
<title>{ provide: HTTP_INTERCEPTORS, useClass: HttpRequestInterceptor, multi: &#160;}&#45;&gt;AppModule</title>
<path fill="none" stroke="black" d="M6124.71,-242C6321.65,-242 6541.09,-242 6541.09,-242 6541.09,-242 6541.09,-284.72 6541.09,-284.72"/>
<polygon fill="black" stroke="black" points="6537.59,-284.72 6541.09,-294.72 6544.59,-284.72 6537.59,-284.72"/>
</g>
<!-- { provide: Environment, useValue: environment } -->
<g id="node15" class="node">
<title>{ provide: Environment, useValue: environment }</title>
<ellipse fill="#fdb462" stroke="black" cx="5272" cy="-248" rx="204.64" ry="18"/>
<text text-anchor="middle" x="5272" y="-243.8" font-family="Times,serif" font-size="14.00">{ provide: Environment, useValue: environment }</text>
</g>
<!-- { provide: Environment, useValue: environment }&#45;&gt;AppModule -->
<g id="edge14" class="edge">
<title>{ provide: Environment, useValue: environment }&#45;&gt;AppModule</title>
<path fill="none" stroke="black" d="M5272,-266.11C5272,-285.34 5272,-313 5272,-313 5272,-313 6510.18,-313 6510.18,-313"/>
<polygon fill="black" stroke="black" points="6510.18,-316.5 6520.18,-313 6510.18,-309.5 6510.18,-316.5"/>
</g>
<!-- IsLoggedInDirective -->
<g id="node16" class="node">
<title>IsLoggedInDirective</title>
<polygon fill="#ffffb3" stroke="black" points="4388.12,-122 4255.88,-122 4255.88,-86 4388.12,-86 4388.12,-122"/>
<text text-anchor="middle" x="4322" y="-99.8" font-family="Times,serif" font-size="14.00">IsLoggedInDirective</text>
</g>
<!-- IsLoggedInDirective&#45;&gt;AuthModule -->
<g id="edge15" class="edge">
<title>IsLoggedInDirective&#45;&gt;AuthModule</title>
<path fill="none" stroke="black" d="M4388.42,-104C4821.39,-104 7224.42,-104 7224.42,-104 7224.42,-104 7224.42,-151.99 7224.42,-151.99"/>
<polygon fill="black" stroke="black" points="7220.92,-151.99 7224.42,-161.99 7227.92,-151.99 7220.92,-151.99"/>
</g>
<!-- NotRolesDirective -->
<g id="node17" class="node">
<title>NotRolesDirective</title>
<polygon fill="#ffffb3" stroke="black" points="4237.47,-122 4116.53,-122 4116.53,-86 4237.47,-86 4237.47,-122"/>
<text text-anchor="middle" x="4177" y="-99.8" font-family="Times,serif" font-size="14.00">NotRolesDirective</text>
</g>
<!-- NotRolesDirective&#45;&gt;AuthModule -->
<g id="edge16" class="edge">
<title>NotRolesDirective&#45;&gt;AuthModule</title>
<path fill="none" stroke="black" d="M4177,-122.15C4177,-123.3 4177,-124 4177,-124 4177,-124 7220.25,-124 7220.25,-124 7220.25,-124 7220.25,-151.97 7220.25,-151.97"/>
<polygon fill="black" stroke="black" points="7216.75,-151.97 7220.25,-161.97 7223.75,-151.97 7216.75,-151.97"/>
</g>
<!-- RolesDirective -->
<g id="node18" class="node">
<title>RolesDirective</title>
<polygon fill="#ffffb3" stroke="black" points="4098.97,-122 3999.03,-122 3999.03,-86 4098.97,-86 4098.97,-122"/>
<text text-anchor="middle" x="4049" y="-99.8" font-family="Times,serif" font-size="14.00">RolesDirective</text>
</g>
<!-- RolesDirective&#45;&gt;AuthModule -->
<g id="edge17" class="edge">
<title>RolesDirective&#45;&gt;AuthModule</title>
<path fill="none" stroke="black" d="M4049,-122.17C4049,-124.45 4049,-126 4049,-126 4049,-126 7216.08,-126 7216.08,-126 7216.08,-126 7216.08,-151.72 7216.08,-151.72"/>
<polygon fill="black" stroke="black" points="7212.58,-151.72 7216.08,-161.72 7219.58,-151.72 7212.58,-151.72"/>
</g>
<!-- ZenLoginFormComponent -->
<g id="node19" class="node">
<title>ZenLoginFormComponent</title>
<polygon fill="#ffffb3" stroke="black" points="3981.38,-122 3814.62,-122 3814.62,-86 3981.38,-86 3981.38,-122"/>
<text text-anchor="middle" x="3898" y="-99.8" font-family="Times,serif" font-size="14.00">ZenLoginFormComponent</text>
</g>
<!-- ZenLoginFormComponent&#45;&gt;AuthModule -->
<g id="edge18" class="edge">
<title>ZenLoginFormComponent&#45;&gt;AuthModule</title>
<path fill="none" stroke="black" d="M3898,-122.12C3898,-124.97 3898,-127 3898,-127 3898,-127 7211.92,-127 7211.92,-127 7211.92,-127 7211.92,-151.76 7211.92,-151.76"/>
<polygon fill="black" stroke="black" points="7208.42,-151.76 7211.92,-161.76 7215.42,-151.76 7208.42,-151.76"/>
</g>
<!-- ZenLoginPageComponent -->
<g id="node20" class="node">
<title>ZenLoginPageComponent</title>
<polygon fill="#ffffb3" stroke="black" points="3796.75,-122 3633.25,-122 3633.25,-86 3796.75,-86 3796.75,-122"/>
<text text-anchor="middle" x="3715" y="-99.8" font-family="Times,serif" font-size="14.00">ZenLoginPageComponent</text>
</g>
<!-- ZenLoginPageComponent&#45;&gt;AuthModule -->
<g id="edge19" class="edge">
<title>ZenLoginPageComponent&#45;&gt;AuthModule</title>
<path fill="none" stroke="black" d="M3715,-122.17C3715,-126.05 3715,-129 3715,-129 3715,-129 7207.75,-129 7207.75,-129 7207.75,-129 7207.75,-151.88 7207.75,-151.88"/>
<polygon fill="black" stroke="black" points="7204.25,-151.88 7207.75,-161.88 7211.25,-151.88 7204.25,-151.88"/>
</g>
<!-- ZenLoginLinkComponent -->
<g id="node21" class="node">
<title>ZenLoginLinkComponent</title>
<polygon fill="#ffffb3" stroke="black" points="3615.49,-122 3452.51,-122 3452.51,-86 3615.49,-86 3615.49,-122"/>
<text text-anchor="middle" x="3534" y="-99.8" font-family="Times,serif" font-size="14.00">ZenLoginLinkComponent</text>
</g>
<!-- ZenLoginLinkComponent&#45;&gt;AuthModule -->
<g id="edge20" class="edge">
<title>ZenLoginLinkComponent&#45;&gt;AuthModule</title>
<path fill="none" stroke="black" d="M3534,-122.06C3534,-126.49 3534,-130 3534,-130 3534,-130 7203.58,-130 7203.58,-130 7203.58,-130 7203.58,-151.95 7203.58,-151.95"/>
<polygon fill="black" stroke="black" points="7200.08,-151.95 7203.58,-161.95 7207.08,-151.95 7200.08,-151.95"/>
</g>
<!-- CommonModule -->
<g id="node22" class="node">
<title>CommonModule</title>
<polygon fill="#8dd3c7" stroke="black" points="1725.67,-122 1722.67,-126 1701.67,-126 1698.67,-122 1614.33,-122 1614.33,-86 1725.67,-86 1725.67,-122"/>
<text text-anchor="middle" x="1670" y="-99.8" font-family="Times,serif" font-size="14.00">CommonModule</text>
</g>
<!-- CommonModule&#45;&gt;AuthModule -->
<g id="edge21" class="edge">
<title>CommonModule&#45;&gt;AuthModule</title>
<path fill="none" stroke="black" d="M1703.5,-122.18C1703.5,-135.04 1703.5,-150 1703.5,-150 1703.5,-150 7178.56,-150 7178.56,-150 7178.56,-150 7178.56,-151.86 7178.56,-151.86"/>
<polygon fill="black" stroke="black" points="7175.06,-151.86 7178.56,-161.86 7182.06,-151.86 7175.06,-151.86"/>
</g>
<!-- CommonModule&#45;&gt;MainModule -->
<g id="edge39" class="edge">
<title>CommonModule&#45;&gt;MainModule</title>
<path fill="none" stroke="black" d="M1681.17,-122.34C1681.17,-151.21 1681.17,-204 1681.17,-204 1681.17,-204 7195.18,-204 7195.18,-204 7195.18,-204 7195.18,-219.85 7195.18,-219.85"/>
<polygon fill="black" stroke="black" points="7191.68,-219.85 7195.18,-229.85 7198.68,-219.85 7191.68,-219.85"/>
</g>
<!-- ZenComponentsModule -->
<g id="node30" class="node">
<title>ZenComponentsModule</title>
<polygon fill="#8dd3c7" stroke="black" points="1466.09,-198 1463.09,-202 1442.09,-202 1439.09,-198 1313.91,-198 1313.91,-162 1466.09,-162 1466.09,-198"/>
<text text-anchor="middle" x="1390" y="-175.8" font-family="Times,serif" font-size="14.00">ZenComponentsModule</text>
</g>
<!-- CommonModule&#45;&gt;ZenComponentsModule -->
<g id="edge45" class="edge">
<title>CommonModule&#45;&gt;ZenComponentsModule</title>
<path fill="none" stroke="black" d="M1636.5,-122.2C1636.5,-146.36 1636.5,-186 1636.5,-186 1636.5,-186 1476.31,-186 1476.31,-186"/>
<polygon fill="black" stroke="black" points="1476.31,-182.5 1466.31,-186 1476.31,-189.5 1476.31,-182.5"/>
</g>
<!-- CommonModule&#45;&gt;ZenSuperModule -->
<g id="edge54" class="edge">
<title>CommonModule&#45;&gt;ZenSuperModule</title>
<path fill="none" stroke="black" d="M1658.83,-122.24C1658.83,-160.99 1658.83,-248 1658.83,-248 1658.83,-248 1292.16,-248 1292.16,-248"/>
<polygon fill="black" stroke="black" points="1292.16,-244.5 1282.16,-248 1292.16,-251.5 1292.16,-244.5"/>
</g>
<!-- ReactiveFormsModule -->
<g id="node23" class="node">
<title>ReactiveFormsModule</title>
<polygon fill="#8dd3c7" stroke="black" points="1458.3,-122 1455.3,-126 1434.3,-126 1431.3,-122 1313.7,-122 1313.7,-86 1458.3,-86 1458.3,-122"/>
<text text-anchor="middle" x="1386" y="-99.8" font-family="Times,serif" font-size="14.00">ReactiveFormsModule</text>
</g>
<!-- ReactiveFormsModule&#45;&gt;AuthModule -->
<g id="edge22" class="edge">
<title>ReactiveFormsModule&#45;&gt;AuthModule</title>
<path fill="none" stroke="black" d="M1386,-85.58C1386,-76.72 1386,-68 1386,-68 1386,-68 7253.6,-68 7253.6,-68 7253.6,-68 7253.6,-151.51 7253.6,-151.51"/>
<polygon fill="black" stroke="black" points="7250.1,-151.51 7253.6,-161.51 7257.1,-151.51 7250.1,-151.51"/>
</g>
<!-- ReactiveFormsModule&#45;&gt;ZenComponentsModule -->
<g id="edge46" class="edge">
<title>ReactiveFormsModule&#45;&gt;ZenComponentsModule</title>
<path fill="none" stroke="black" d="M1440.13,-122.01C1440.13,-122.01 1440.13,-151.85 1440.13,-151.85"/>
<polygon fill="black" stroke="black" points="1436.63,-151.85 1440.13,-161.85 1443.63,-151.85 1436.63,-151.85"/>
</g>
<!-- MatInputModule -->
<g id="node24" class="node">
<title>MatInputModule</title>
<polygon fill="#8dd3c7" stroke="black" points="2446.65,-122 2443.65,-126 2422.65,-126 2419.65,-122 2335.35,-122 2335.35,-86 2446.65,-86 2446.65,-122"/>
<text text-anchor="middle" x="2391" y="-99.8" font-family="Times,serif" font-size="14.00">MatInputModule</text>
</g>
<!-- MatInputModule&#45;&gt;AuthModule -->
<g id="edge23" class="edge">
<title>MatInputModule&#45;&gt;AuthModule</title>
<path fill="none" stroke="black" d="M2391,-122.11C2391,-131.9 2391,-142 2391,-142 2391,-142 7199.41,-142 7199.41,-142 7199.41,-142 7199.41,-151.89 7199.41,-151.89"/>
<polygon fill="black" stroke="black" points="7195.91,-151.89 7199.41,-161.89 7202.91,-151.89 7195.91,-151.89"/>
</g>
<!-- MatFormFieldModule -->
<g id="node25" class="node">
<title>MatFormFieldModule</title>
<polygon fill="#8dd3c7" stroke="black" points="2317.71,-122 2314.71,-126 2293.71,-126 2290.71,-122 2176.29,-122 2176.29,-86 2317.71,-86 2317.71,-122"/>
<text text-anchor="middle" x="2247" y="-99.8" font-family="Times,serif" font-size="14.00">MatFormFieldModule</text>
</g>
<!-- MatFormFieldModule&#45;&gt;AuthModule -->
<g id="edge24" class="edge">
<title>MatFormFieldModule&#45;&gt;AuthModule</title>
<path fill="none" stroke="black" d="M2247,-122.13C2247,-132.31 2247,-143 2247,-143 2247,-143 7195.24,-143 7195.24,-143 7195.24,-143 7195.24,-151.93 7195.24,-151.93"/>
<polygon fill="black" stroke="black" points="7191.74,-151.93 7195.24,-161.93 7198.74,-151.93 7191.74,-151.93"/>
</g>
<!-- MatIconModule -->
<g id="node26" class="node">
<title>MatIconModule</title>
<polygon fill="#8dd3c7" stroke="black" points="2158.47,-122 2155.47,-126 2134.47,-126 2131.47,-122 2051.53,-122 2051.53,-86 2158.47,-86 2158.47,-122"/>
<text text-anchor="middle" x="2105" y="-99.8" font-family="Times,serif" font-size="14.00">MatIconModule</text>
</g>
<!-- MatIconModule&#45;&gt;AuthModule -->
<g id="edge25" class="edge">
<title>MatIconModule&#45;&gt;AuthModule</title>
<path fill="none" stroke="black" d="M2105,-122.1C2105,-133.09 2105,-145 2105,-145 2105,-145 7191.07,-145 7191.07,-145 7191.07,-145 7191.07,-151.68 7191.07,-151.68"/>
<polygon fill="black" stroke="black" points="7187.57,-151.68 7191.07,-161.68 7194.57,-151.68 7187.57,-151.68"/>
</g>
<!-- MatButtonModule -->
<g id="node27" class="node">
<title>MatButtonModule</title>
<polygon fill="#8dd3c7" stroke="black" points="1596.22,-122 1593.22,-126 1572.22,-126 1569.22,-122 1475.78,-122 1475.78,-86 1596.22,-86 1596.22,-122"/>
<text text-anchor="middle" x="1536" y="-99.8" font-family="Times,serif" font-size="14.00">MatButtonModule</text>
</g>
<!-- MatButtonModule&#45;&gt;AuthModule -->
<g id="edge26" class="edge">
<title>MatButtonModule&#45;&gt;AuthModule</title>
<path fill="none" stroke="black" d="M1515.96,-122.04C1515.96,-135.29 1515.96,-151 1515.96,-151 1515.96,-151 7174.4,-151 7174.4,-151 7174.4,-151 7174.4,-152.08 7174.4,-152.08"/>
<polygon fill="black" stroke="black" points="7170.9,-151.8 7174.4,-161.8 7177.9,-151.8 7170.9,-151.8"/>
</g>
<!-- MatButtonModule&#45;&gt;ZenComponentsModule -->
<g id="edge47" class="edge">
<title>MatButtonModule&#45;&gt;ZenComponentsModule</title>
<path fill="none" stroke="black" d="M1475.65,-104C1467.62,-104 1462.1,-104 1462.1,-104 1462.1,-104 1462.1,-151.99 1462.1,-151.99"/>
<polygon fill="black" stroke="black" points="1458.6,-151.99 1462.1,-161.99 1465.6,-151.99 1458.6,-151.99"/>
</g>
<!-- MatButtonModule&#45;&gt;ZenSuperModule -->
<g id="edge57" class="edge">
<title>MatButtonModule&#45;&gt;ZenSuperModule</title>
<path fill="none" stroke="black" d="M1556.04,-122.21C1556.04,-159.06 1556.04,-239 1556.04,-239 1556.04,-239 1292.28,-239 1292.28,-239"/>
<polygon fill="black" stroke="black" points="1292.28,-235.5 1282.28,-239 1292.28,-242.5 1292.28,-235.5"/>
</g>
<!-- MatCheckboxModule -->
<g id="node28" class="node">
<title>MatCheckboxModule</title>
<polygon fill="#8dd3c7" stroke="black" points="2033.37,-122 2030.37,-126 2009.37,-126 2006.37,-122 1894.63,-122 1894.63,-86 2033.37,-86 2033.37,-122"/>
<text text-anchor="middle" x="1964" y="-99.8" font-family="Times,serif" font-size="14.00">MatCheckboxModule</text>
</g>
<!-- MatCheckboxModule&#45;&gt;AuthModule -->
<g id="edge27" class="edge">
<title>MatCheckboxModule&#45;&gt;AuthModule</title>
<path fill="none" stroke="black" d="M1964,-122.06C1964,-133.44 1964,-146 1964,-146 1964,-146 7186.9,-146 7186.9,-146 7186.9,-146 7186.9,-151.81 7186.9,-151.81"/>
<polygon fill="black" stroke="black" points="7183.4,-151.81 7186.9,-161.81 7190.4,-151.81 7183.4,-151.81"/>
</g>
<!-- AuthRoutingModule -->
<g id="node29" class="node">
<title>AuthRoutingModule</title>
<polygon fill="#8dd3c7" stroke="black" points="1876.17,-122 1873.17,-126 1852.17,-126 1849.17,-122 1743.83,-122 1743.83,-86 1876.17,-86 1876.17,-122"/>
<text text-anchor="middle" x="1810" y="-99.8" font-family="Times,serif" font-size="14.00">AuthRoutingModule</text>
</g>
<!-- AuthRoutingModule&#45;&gt;AuthModule -->
<g id="edge28" class="edge">
<title>AuthRoutingModule&#45;&gt;AuthModule</title>
<path fill="none" stroke="black" d="M1810,-122.15C1810,-134.27 1810,-148 1810,-148 1810,-148 7182.73,-148 7182.73,-148 7182.73,-148 7182.73,-151.76 7182.73,-151.76"/>
<polygon fill="black" stroke="black" points="7179.23,-151.76 7182.73,-161.76 7186.23,-151.76 7179.23,-151.76"/>
</g>
<!-- ZenComponentsModule&#45;&gt;AuthModule -->
<g id="edge29" class="edge">
<title>ZenComponentsModule&#45;&gt;AuthModule</title>
<path fill="none" stroke="black" d="M1390,-198.2C1390,-204.03 1390,-209 1390,-209 1390,-209 7182.7,-209 7182.7,-209 7182.7,-209 7182.7,-207.92 7182.7,-207.92"/>
<polygon fill="black" stroke="black" points="7186.2,-208.2 7182.7,-198.2 7179.2,-208.2 7186.2,-208.2"/>
</g>
<!-- ZenConfirmComponent  -->
<g id="node47" class="node">
<title>ZenConfirmComponent </title>
<polygon fill="#fb8072" stroke="black" points="596.04,-122 441.96,-122 441.96,-86 596.04,-86 596.04,-122"/>
<text text-anchor="middle" x="519" y="-99.8" font-family="Times,serif" font-size="14.00">ZenConfirmComponent </text>
</g>
<!-- ZenComponentsModule&#45;&gt;ZenConfirmComponent  -->
<g id="edge50" class="edge">
<title>ZenComponentsModule&#45;&gt;ZenConfirmComponent </title>
<path fill="none" stroke="black" stroke-dasharray="5,2" d="M1368.03,-161.83C1368.03,-159.55 1368.03,-158 1368.03,-158 1368.03,-158 519,-158 519,-158 519,-158 519,-132.28 519,-132.28"/>
<polygon fill="black" stroke="black" points="522.5,-132.28 519,-122.28 515.5,-132.28 522.5,-132.28"/>
</g>
<!-- ZenLoadingComponent  -->
<g id="node48" class="node">
<title>ZenLoadingComponent </title>
<polygon fill="#fb8072" stroke="black" points="423.76,-122 270.24,-122 270.24,-86 423.76,-86 423.76,-122"/>
<text text-anchor="middle" x="347" y="-99.8" font-family="Times,serif" font-size="14.00">ZenLoadingComponent </text>
</g>
<!-- ZenComponentsModule&#45;&gt;ZenLoadingComponent  -->
<g id="edge51" class="edge">
<title>ZenComponentsModule&#45;&gt;ZenLoadingComponent </title>
<path fill="none" stroke="black" stroke-dasharray="5,2" d="M1350,-161.92C1350,-160.15 1350,-159 1350,-159 1350,-159 347,-159 347,-159 347,-159 347,-132.01 347,-132.01"/>
<polygon fill="black" stroke="black" points="350.5,-132.01 347,-122.01 343.5,-132.01 350.5,-132.01"/>
</g>
<!-- { provide: APOLLO_OPTIONS, useFactory: createApollo, deps: [HttpBatchLink, GraphQLOptions] } -->
<g id="node37" class="node">
<title>{ provide: APOLLO_OPTIONS, useFactory: createApollo, deps: [HttpBatchLink, GraphQLOptions] }</title>
<ellipse fill="#fdb462" stroke="black" cx="8496" cy="-104" rx="409.93" ry="18"/>
<text text-anchor="middle" x="8496" y="-99.8" font-family="Times,serif" font-size="14.00">{ provide: APOLLO_OPTIONS, useFactory: createApollo, deps: [HttpBatchLink, GraphQLOptions] }</text>
</g>
<!-- GraphQLModule -->
<g id="node38" class="node">
<title>GraphQLModule</title>
<polygon fill="#8dd3c7" stroke="black" points="8552.69,-198 8549.69,-202 8528.69,-202 8525.69,-198 8439.31,-198 8439.31,-162 8552.69,-162 8552.69,-198"/>
<text text-anchor="middle" x="8496" y="-175.8" font-family="Times,serif" font-size="14.00">GraphQLModule</text>
</g>
<!-- { provide: APOLLO_OPTIONS, useFactory: createApollo, deps: [HttpBatchLink, GraphQLOptions] }&#45;&gt;GraphQLModule -->
<g id="edge36" class="edge">
<title>{ provide: APOLLO_OPTIONS, useFactory: createApollo, deps: [HttpBatchLink, GraphQLOptions] }&#45;&gt;GraphQLModule</title>
<path fill="none" stroke="black" d="M8496,-122.01C8496,-122.01 8496,-151.85 8496,-151.85"/>
<polygon fill="black" stroke="black" points="8492.5,-151.85 8496,-161.85 8499.5,-151.85 8492.5,-151.85"/>
</g>
<!-- ZenMainComponent -->
<g id="node39" class="node">
<title>ZenMainComponent</title>
<polygon fill="#ffffb3" stroke="black" points="8046.15,-198 7913.85,-198 7913.85,-162 8046.15,-162 8046.15,-198"/>
<text text-anchor="middle" x="7980" y="-175.8" font-family="Times,serif" font-size="14.00">ZenMainComponent</text>
</g>
<!-- ZenMainComponent&#45;&gt;MainModule -->
<g id="edge37" class="edge">
<title>ZenMainComponent&#45;&gt;MainModule</title>
<path fill="none" stroke="black" d="M7980,-198.04C7980,-210.56 7980,-225 7980,-225 7980,-225 7245.08,-225 7245.08,-225 7245.08,-225 7245.08,-225.49 7245.08,-225.49"/>
<polygon fill="black" stroke="black" points="7241.58,-219.88 7245.08,-229.88 7248.58,-219.88 7241.58,-219.88"/>
</g>
<!-- ZenDashboardComponent -->
<g id="node40" class="node">
<title>ZenDashboardComponent</title>
<polygon fill="#ffffb3" stroke="black" points="7895.74,-198 7732.26,-198 7732.26,-162 7895.74,-162 7895.74,-198"/>
<text text-anchor="middle" x="7814" y="-175.8" font-family="Times,serif" font-size="14.00">ZenDashboardComponent</text>
</g>
<!-- ZenDashboardComponent&#45;&gt;MainModule -->
<g id="edge38" class="edge">
<title>ZenDashboardComponent&#45;&gt;MainModule</title>
<path fill="none" stroke="black" d="M7814,-198.13C7814,-208.71 7814,-220 7814,-220 7814,-220 7232.6,-220 7232.6,-220 7232.6,-220 7232.6,-220.98 7232.6,-220.98"/>
<polygon fill="black" stroke="black" points="7229.1,-219.79 7232.6,-229.79 7236.1,-219.79 7229.1,-219.79"/>
</g>
<!-- MatSidenavModule -->
<g id="node41" class="node">
<title>MatSidenavModule</title>
<polygon fill="#8dd3c7" stroke="black" points="7707.7,-198 7704.7,-202 7683.7,-202 7680.7,-198 7580.3,-198 7580.3,-162 7707.7,-162 7707.7,-198"/>
<text text-anchor="middle" x="7644" y="-175.8" font-family="Times,serif" font-size="14.00">MatSidenavModule</text>
</g>
<!-- MatSidenavModule&#45;&gt;MainModule -->
<g id="edge40" class="edge">
<title>MatSidenavModule&#45;&gt;MainModule</title>
<path fill="none" stroke="black" d="M7644,-198.19C7644,-206.28 7644,-214 7644,-214 7644,-214 7220.13,-214 7220.13,-214 7220.13,-214 7220.13,-219.81 7220.13,-219.81"/>
<polygon fill="black" stroke="black" points="7216.63,-219.81 7220.13,-229.81 7223.63,-219.81 7216.63,-219.81"/>
</g>
<!-- MainRoutingModule -->
<g id="node42" class="node">
<title>MainRoutingModule</title>
<polygon fill="#8dd3c7" stroke="black" points="7562.22,-198 7559.22,-202 7538.22,-202 7535.22,-198 7427.78,-198 7427.78,-162 7562.22,-162 7562.22,-198"/>
<text text-anchor="middle" x="7495" y="-175.8" font-family="Times,serif" font-size="14.00">MainRoutingModule</text>
</g>
<!-- MainRoutingModule&#45;&gt;MainModule -->
<g id="edge41" class="edge">
<title>MainRoutingModule&#45;&gt;MainModule</title>
<path fill="none" stroke="black" d="M7427.81,-180C7361.51,-180 7270.03,-180 7270.03,-180 7270.03,-180 7270.03,-248 7270.03,-248 7270.03,-248 7267.65,-248 7267.65,-248"/>
<polygon fill="black" stroke="black" points="7267.65,-244.5 7257.65,-248 7267.65,-251.5 7267.65,-244.5"/>
</g>
<!-- ZenConfirmComponent -->
<g id="node43" class="node">
<title>ZenConfirmComponent</title>
<polygon fill="#ffffb3" stroke="black" points="1274.04,-122 1123.96,-122 1123.96,-86 1274.04,-86 1274.04,-122"/>
<text text-anchor="middle" x="1199" y="-99.8" font-family="Times,serif" font-size="14.00">ZenConfirmComponent</text>
</g>
<!-- ZenConfirmComponent&#45;&gt;ZenComponentsModule -->
<g id="edge43" class="edge">
<title>ZenConfirmComponent&#45;&gt;ZenComponentsModule</title>
<path fill="none" stroke="black" d="M1274.41,-104C1276.84,-104 1278.24,-104 1278.24,-104 1278.24,-104 1278.24,-180 1278.24,-180 1278.24,-180 1303.91,-180 1303.91,-180"/>
<polygon fill="black" stroke="black" points="1303.91,-183.5 1313.91,-180 1303.91,-176.5 1303.91,-183.5"/>
</g>
<!-- ZenLoadingComponent -->
<g id="node44" class="node">
<title>ZenLoadingComponent</title>
<polygon fill="#ffffb3" stroke="black" points="1105.76,-122 956.24,-122 956.24,-86 1105.76,-86 1105.76,-122"/>
<text text-anchor="middle" x="1031" y="-99.8" font-family="Times,serif" font-size="14.00">ZenLoadingComponent</text>
</g>
<!-- ZenLoadingComponent&#45;&gt;ZenComponentsModule -->
<g id="edge44" class="edge">
<title>ZenLoadingComponent&#45;&gt;ZenComponentsModule</title>
<path fill="none" stroke="black" d="M1096.77,-122.25C1096.77,-136.18 1096.77,-153 1096.77,-153 1096.77,-153 1422.1,-153 1422.1,-153 1422.1,-153 1422.1,-153.88 1422.1,-153.88"/>
<polygon fill="black" stroke="black" points="1418.6,-151.84 1422.1,-161.84 1425.6,-151.84 1418.6,-151.84"/>
</g>
<!-- MatDialogModule -->
<g id="node45" class="node">
<title>MatDialogModule</title>
<polygon fill="#8dd3c7" stroke="black" points="932.2,-122 929.2,-126 908.2,-126 905.2,-122 811.8,-122 811.8,-86 932.2,-86 932.2,-122"/>
<text text-anchor="middle" x="872" y="-99.8" font-family="Times,serif" font-size="14.00">MatDialogModule</text>
</g>
<!-- MatDialogModule&#45;&gt;ZenComponentsModule -->
<g id="edge48" class="edge">
<title>MatDialogModule&#45;&gt;ZenComponentsModule</title>
<path fill="none" stroke="black" d="M872,-122.05C872,-136.37 872,-154 872,-154 872,-154 1404.08,-154 1404.08,-154 1404.08,-154 1404.08,-154.79 1404.08,-154.79"/>
<polygon fill="black" stroke="black" points="1400.58,-151.94 1404.08,-161.94 1407.58,-151.94 1400.58,-151.94"/>
</g>
<!-- MatProgressSpinnerModule -->
<g id="node46" class="node">
<title>MatProgressSpinnerModule</title>
<polygon fill="#8dd3c7" stroke="black" points="793.86,-122 790.86,-126 769.86,-126 766.86,-122 620.14,-122 620.14,-86 793.86,-86 793.86,-122"/>
<text text-anchor="middle" x="707" y="-99.8" font-family="Times,serif" font-size="14.00">MatProgressSpinnerModule</text>
</g>
<!-- MatProgressSpinnerModule&#45;&gt;ZenComponentsModule -->
<g id="edge49" class="edge">
<title>MatProgressSpinnerModule&#45;&gt;ZenComponentsModule</title>
<path fill="none" stroke="black" d="M707,-122.19C707,-137.18 707,-156 707,-156 707,-156 1386.05,-156 1386.05,-156 1386.05,-156 1386.05,-156.58 1386.05,-156.58"/>
<polygon fill="black" stroke="black" points="1382.55,-151.81 1386.05,-161.81 1389.55,-151.81 1382.55,-151.81"/>
</g>
<!-- ZenSnackbarErrorService -->
<g id="node49" class="node">
<title>ZenSnackbarErrorService</title>
<ellipse fill="#fdb462" stroke="black" cx="135" cy="-104" rx="111.12" ry="18"/>
<text text-anchor="middle" x="135" y="-99.8" font-family="Times,serif" font-size="14.00">ZenSnackbarErrorService</text>
</g>
<!-- ZenSnackbarErrorService&#45;&gt;ZenComponentsModule -->
<g id="edge52" class="edge">
<title>ZenSnackbarErrorService&#45;&gt;ZenComponentsModule</title>
<path fill="none" stroke="black" d="M135,-122.04C135,-138.73 135,-161 135,-161 135,-161 1331.98,-161 1331.98,-161 1331.98,-161 1331.98,-161.08 1331.98,-161.08"/>
<polygon fill="black" stroke="black" points="1328.48,-151.82 1331.98,-161.82 1335.48,-151.82 1328.48,-151.82"/>
</g>
<!-- ZenSuperPageComponent -->
<g id="node50" class="node">
<title>ZenSuperPageComponent</title>
<polygon fill="#ffffb3" stroke="black" points="1274.47,-198 1111.53,-198 1111.53,-162 1274.47,-162 1274.47,-198"/>
<text text-anchor="middle" x="1193" y="-175.8" font-family="Times,serif" font-size="14.00">ZenSuperPageComponent</text>
</g>
<!-- ZenSuperPageComponent&#45;&gt;ZenSuperModule -->
<g id="edge53" class="edge">
<title>ZenSuperPageComponent&#45;&gt;ZenSuperModule</title>
<path fill="none" stroke="black" d="M1221.25,-198.22C1221.25,-198.22 1221.25,-219.73 1221.25,-219.73"/>
<polygon fill="black" stroke="black" points="1217.75,-219.73 1221.25,-229.73 1224.75,-219.73 1217.75,-219.73"/>
</g>
<!-- FormsModule -->
<g id="node52" class="node">
<title>FormsModule</title>
<polygon fill="#8dd3c7" stroke="black" points="1087.83,-198 1084.83,-202 1063.83,-202 1060.83,-198 992.17,-198 992.17,-162 1087.83,-162 1087.83,-198"/>
<text text-anchor="middle" x="1040" y="-175.8" font-family="Times,serif" font-size="14.00">FormsModule</text>
</g>
<!-- FormsModule&#45;&gt;ZenSuperModule -->
<g id="edge56" class="edge">
<title>FormsModule&#45;&gt;ZenSuperModule</title>
<path fill="none" stroke="black" d="M1040,-198.22C1040,-218.37 1040,-248 1040,-248 1040,-248 1157.98,-248 1157.98,-248"/>
<polygon fill="black" stroke="black" points="1157.98,-251.5 1167.98,-248 1157.98,-244.5 1157.98,-251.5"/>
</g>
</g>
</svg>
